<svg width="483" height="352" version="1.1" xmlns="http://www.w3.org/2000/svg" desc="Created with imagetracer.js version 1.2.6"><defs>
  <linearGradient id="logo-grad" x1="0%" y1="0%" x2="100%" y2="100%">
    <stop offset="0%" stop-color="#a855f7" />
    <stop offset="100%" stop-color="#06b6d4" />
  </linearGradient>
</defs><path fill="rgb(0,0,0)" stroke="rgb(0,0,0)" stroke-width="1.5" opacity="0" d="M 0 0 L 0.5 0 L 56.5 0 L 57 0.5 L 48 9.5 L 48 10.5 L 31 27.5 L 31 28.5 L 18 41.5 L 18 42.5 L 4 56.5 L 4 58 Q 1.9 57.5 1 59.5 Q 1.3 60.8 0.5 61 L 0 60.5 L 0 0.5 L 0 0 Z "></path><path fill="rgb(0,0,0)" stroke="rgb(0,0,0)" stroke-width="1.5" opacity="0" d="M 239 0 L 239.5 0 L 361.5 0 L 362 0.5 Q 360.8 0.7 361 2.5 L 359 4.5 L 359 5.5 L 357 7.5 L 357 8.5 Q 355.8 8.8 356 10.5 L 352 15.5 L 352 16.5 Q 350.7 16.8 351 18.5 L 348 21.5 L 348 22.5 Q 346.8 22.8 347 24.5 L 345 26.5 L 345 27.5 L 343 29.5 L 343 30.5 L 339 35.5 L 339 36.5 Q 337.8 36.7 338 38.5 L 335 41.5 L 335 42.5 Q 333.8 42.8 334 44.5 L 332 46.5 L 332 47.5 L 330 49.5 L 330 50.5 L 326 55.5 L 326 56.5 Q 324.8 56.7 325 58.5 L 321 63.5 L 321 64.5 Q 319.7 64.8 320 66.5 L 317 69.5 L 317 70.5 Q 315.8 70.7 316 72.5 L 313 75.5 L 313 76.5 L 311 78.5 L 311 79.5 Q 309.7 79.7 310 81.5 L 308 83.5 L 308 84.5 Q 306.8 84.7 307 86.5 L 304 89.5 L 304 90.5 L 302 92.5 L 302 93.5 Q 300.7 93.7 301 95.5 L 299 97.5 L 299 98.5 L 297 100.5 L 297 101.5 L 295 103.5 L 295 104.5 L 293 106.5 L 293 107.5 L 291 109.5 L 291 110.5 L 289 112.5 L 289 113.5 Q 287.8 113.8 288 115.5 L 286 117.5 L 286 118.5 L 284 120.5 L 284 121.5 L 282 123.5 Q 282.3 124.8 281.5 125 L 279 122.5 L 279 121.5 L 278 120.5 L 278 119.5 L 277 118.5 L 277 117.5 L 276 116.5 L 276 115.5 L 275 114.5 L 275 113.5 L 274 112.5 L 274 111.5 L 273 110.5 L 273 109.5 L 272 108.5 L 272 107.5 L 271 106.5 L 271 105.5 Q 269.8 105.2 270 103.5 L 267.5 101 L 240.5 101 L 239 99.5 L 239 0.5 L 239 0 Z "></path><path fill="rgb(0,0,0)" stroke="rgb(0,0,0)" stroke-width="1.5" opacity="0" d="M 482.5 2 L 483 2.5 L 483 351.5 L 483 352 L 482.5 352 L 317.5 352 Q 316.5 352.4 317 350.5 L 318 349.5 L 318 348.5 L 319 347.5 L 319 346.5 L 320 345.5 L 320 344.5 L 321 343.5 L 321 342.5 L 322 341.5 L 322 340.5 L 323 339.5 L 323 338.5 L 324 337.5 L 324 336.5 L 325 335.5 L 325 334.5 L 327 331.5 L 327 329.5 L 328 328.5 L 328 327.5 L 329 326.5 L 329 325.5 L 330 324.5 L 330 323.5 L 331 322.5 L 331 321.5 L 332 320.5 L 332 319.5 L 333 318.5 L 333 317.5 L 335 314.5 L 335 312.5 Q 336.3 312.2 336 310.5 L 338 308.5 L 338 307.5 L 340 304.5 L 340 302.5 L 342 300.5 L 342 298.5 L 343 297.5 L 343 296.5 L 344 295.5 L 344 294.5 L 345 293.5 L 345 292.5 L 346 291.5 L 346 290.5 L 348 287.5 L 348 285.5 L 349 284.5 L 349 283.5 L 350 282.5 L 350 281.5 L 351 280.5 L 351 279.5 L 352 278.5 L 352 277.5 L 353 276.5 L 353 275.5 L 354 274.5 L 354 273.5 L 355 272.5 L 355 271.5 L 357 268.5 L 357 266.5 Q 358.3 266.3 358 264.5 L 360 262.5 L 360 260.5 L 361 259.5 L 361 258.5 L 363 255.5 L 363 254.5 L 364 253.5 L 364 252.5 L 365 251.5 L 365 250.5 L 366 249.5 L 366 248.5 L 367 247.5 L 367 246.5 L 369 243.5 L 369 241.5 L 370 240.5 L 370 239.5 L 371 238.5 L 371 237.5 L 372 236.5 L 372 235.5 L 373 234.5 L 373 233.5 L 374 232.5 L 374 231.5 L 375 230.5 L 375 229.5 L 376 228.5 L 376 227.5 L 377 226.5 L 377 225.5 L 379 222.5 L 379 220.5 Q 380.3 220.3 380 218.5 L 382 216.5 L 382 214.5 L 383 213.5 L 383 212.5 L 384 211.5 L 384 210.5 L 385 209.5 L 385 208.5 L 387 205.5 L 387 203.5 L 388 202.5 L 388 201.5 Q 389.3 201.3 389 199.5 L 391 197.5 L 391 195.5 L 392 194.5 L 392 193.5 L 393 192.5 L 393 191.5 L 394 190.5 L 394 189.5 L 396 186.5 L 396 184.5 L 397 183.5 L 397 182.5 L 398 181.5 L 398 180.5 L 399 179.5 L 399 178.5 L 400 177.5 L 400 176.5 L 401 175.5 L 401 174.5 L 402 173.5 L 402 172.5 L 403 171.5 L 403 170.5 L 405 167.5 L 405 165.5 Q 406.3 165.3 406 163.5 L 408 161.5 L 408 159.5 L 409 158.5 L 409 157.5 L 410 156.5 L 410 155.5 L 411 154.5 L 411 153.5 L 413 150.5 L 413 148.5 L 414 147.5 L 414 146.5 L 415 145.5 L 415 144.5 L 416 143.5 L 416 142.5 L 417 141.5 L 417 140.5 L 418 139.5 L 418 138.5 L 419 137.5 L 419 136.5 L 420 135.5 L 420 134.5 L 421 133.5 L 421 132.5 L 423 129.5 L 423 127.5 L 424 126.5 L 424 125.5 L 425 124.5 L 425 123.5 L 427 120.5 L 427 118.5 L 429 116.5 Q 428.7 114.7 430 114.5 L 430 112.5 L 431 111.5 L 431 110.5 L 432 109.5 L 432 108.5 L 433 107.5 L 433 106.5 L 434 105.5 L 434 104.5 L 436 101.5 L 436 99.5 L 438 97.5 Q 437.7 95.7 439 95.5 L 439 93.5 L 440 92.5 L 440 91.5 L 441 90.5 L 441 89.5 L 442 88.5 L 442 87.5 L 444 84.5 L 444 82.5 Q 445.2 82.3 445 80.5 L 447 78.5 L 447 76.5 L 448 75.5 L 448 74.5 L 449 73.5 L 449 72.5 L 450 71.5 L 450 70.5 L 452 67.5 L 452 65.5 L 454 62.5 L 454 61.5 L 456 59.5 L 456 57.5 L 457 56.5 L 457 55.5 L 458 54.5 L 458 53.5 L 459 52.5 L 459 51.5 L 460 50.5 L 460 49.5 L 462 46.5 L 462 44.5 Q 463.3 44.2 463 42.5 L 465 40.5 L 465 38.5 L 466 37.5 L 466 36.5 L 467 35.5 L 467 34.5 L 468 33.5 L 468 32.5 L 470 29.5 L 470 27.5 L 471 26.5 L 471 25.5 L 472 24.5 L 472 23.5 Q 473.3 23.2 473 21.5 L 474 20.5 L 474 19.5 L 476 16.5 L 476 14.5 L 478 12.5 Q 477.7 10.7 479 10.5 L 479 8.5 L 480 7.5 L 480 6.5 L 481 5.5 L 481 4.5 L 482 3.5 Q 481.8 2.3 482.5 2 Z "></path><path fill="rgb(0,0,0)" stroke="rgb(0,0,0)" stroke-width="1.5" opacity="0" d="M 62.5 6 Q 63.5 8 64.5 6 L 225.5 6 L 227 7.5 L 226.5 8 L 225 8 L 225 9.5 L 207 27.5 L 207 29 L 206.5 29 L 62.5 29 Q 61.5 29.4 62 27.5 L 63 26.5 L 63 19.5 Q 61.5 19 62 16.5 L 63 15.5 L 63 7.5 L 62 6.5 L 62.5 6 Z "></path><path fill="rgb(0,0,0)" stroke="rgb(0,0,0)" stroke-width="1.5" opacity="0" d="M 367.5 6 L 469.5 6 L 470.5 7 L 472 7 L 472 8.5 L 471 9.5 L 471 10.5 L 469 13.5 L 469 15.5 Q 467.7 15.7 468 17.5 L 466 19.5 L 466 21.5 L 465 22.5 L 465 23.5 L 464 24.5 L 464 25.5 Q 462.8 25.8 463 27.5 L 462 28.5 L 462 29.5 L 460 32.5 L 460 34.5 Q 458.7 34.7 459 36.5 L 457 38.5 L 457 40.5 L 455 43.5 L 455 45.5 L 453 47.5 Q 453.2 49.2 452 49.5 L 452 51.5 L 451 52.5 L 451 53.5 L 450 54.5 L 450 55.5 L 449 56.5 L 449 57.5 L 447 60.5 L 447 62.5 Q 445.8 62.8 446 64.5 L 444 66.5 L 444 68.5 L 443 69.5 L 443 70.5 L 442 71.5 L 442 72.5 L 441 73.5 L 441 74.5 L 440 75.5 L 440 76.5 L 438 79.5 L 438 81.5 L 436 83.5 L 436 84.5 L 434 87.5 L 434 89.5 L 433 90.5 L 433 91.5 L 432 92.5 L 432 93.5 L 431 94.5 L 431 95.5 L 429 98.5 L 429 100.5 Q 427.8 100.8 428 102.5 L 426 104.5 L 426 106.5 L 425 107.5 L 425 108.5 L 424 109.5 L 424 110.5 L 423 111.5 L 423 112.5 L 422 113.5 L 422 114.5 L 420 117.5 L 420 119.5 L 419 120.5 L 419 121.5 L 418 122.5 L 418 123.5 L 417 124.5 L 417 125.5 L 415 128.5 L 415 129.5 L 414 130.5 L 414 131.5 L 412 134.5 L 412 136.5 L 411 137.5 L 411 138.5 L 410 139.5 L 410 140.5 L 409 141.5 L 409 142.5 L 408 143.5 L 408 144.5 L 407 145.5 L 407 146.5 L 406 147.5 L 406 148.5 L 404 151.5 L 404 153.5 L 403 154.5 L 403 155.5 L 402 156.5 L 402 157.5 L 401 158.5 L 401 159.5 L 400 160.5 L 400 161.5 L 398 164.5 L 398 166.5 L 396 168.5 Q 396.2 170.2 395 170.5 L 395 172.5 L 394 173.5 L 394 174.5 L 393 175.5 L 393 176.5 L 392 177.5 L 392 178.5 L 391 179.5 L 391 180.5 L 389 183.5 L 389 185.5 L 387 187.5 Q 387.2 189.2 386 189.5 L 386 191.5 L 385 192.5 L 385 193.5 L 384 194.5 L 384 195.5 L 383 196.5 L 383 197.5 L 381 200.5 L 381 202.5 L 379 204.5 L 379 205.5 L 377 208.5 L 377 210.5 Q 375.8 210.7 376 212.5 L 374 214.5 L 374 216.5 L 372 219.5 L 372 221.5 L 370 223.5 Q 370.2 225.2 369 225.5 L 369 227.5 L 368 228.5 L 368 229.5 L 367 230.5 L 367 231.5 L 366 232.5 L 366 233.5 L 365 234.5 L 365 235.5 L 364 236.5 L 364 237.5 L 363 238.5 L 363 239.5 L 362 240.5 L 362 241.5 L 361 242.5 L 361 243.5 L 359 246.5 L 359 248.5 L 357 250.5 Q 357.2 252.2 356 252.5 L 356 254.5 L 355 255.5 L 355 256.5 L 354 257.5 L 354 258.5 L 353 259.5 L 353 260.5 L 351 263.5 L 351 265.5 Q 349.8 265.8 350 267.5 L 348 269.5 L 348 271.5 L 347 272.5 L 347 273.5 L 346 274.5 L 346 275.5 L 345 276.5 L 345 277.5 L 344 278.5 L 344 279.5 L 343 280.5 L 343 281.5 L 341 284.5 L 341 286.5 L 339 288.5 Q 339.2 290.2 338 290.5 L 338 292.5 L 337 293.5 L 337 294.5 L 336 295.5 L 336 296.5 L 335 297.5 L 335 298.5 L 334 299.5 L 334 300.5 L 332 303.5 L 332 305.5 L 330 307.5 Q 330.2 309.2 329 309.5 L 329 311.5 L 328 312.5 L 328 313.5 L 327 314.5 L 327 315.5 L 326 316.5 L 326 317.5 L 324 320.5 L 324 322.5 L 322 324.5 L 322 325.5 L 320 328.5 L 320 330.5 L 319 331.5 L 319 332.5 L 318 333.5 L 318 334.5 Q 316.7 334.7 317 336.5 L 315.5 338 L 314 336.5 L 314 335.5 L 313 334.5 L 313 333.5 Q 311.7 333.3 312 331.5 L 310 329.5 L 310 328.5 Q 308.8 328.2 309 326.5 L 307 324.5 L 307 323.5 L 306 322.5 L 306 321.5 L 305 320.5 L 305 319.5 L 304 318.5 L 304 317.5 Q 302.7 317.3 303 315.5 L 299 310.5 L 299 309.5 Q 297.8 309.3 298 307.5 L 296 305.5 L 296 304.5 L 295 303.5 L 295 302.5 Q 293.7 302.3 294 300.5 L 292 298.5 L 292 297.5 L 291 296.5 L 291 295.5 L 290 294.5 L 290 293.5 L 289 292.5 L 289 291.5 L 288 290.5 L 288 289.5 L 287 288.5 L 287 287.5 L 286 286.5 L 286 285.5 Q 284.7 285.2 285 283.5 L 282 280.5 L 282 279.5 L 281 278.5 L 281 277.5 Q 279.7 277.3 280 275.5 L 278 273.5 L 278 272.5 L 277 271.5 L 277 270.5 Q 275.8 270.3 276 268.5 L 274 266.5 L 274 265.5 L 273 264.5 L 273 262.5 Q 271.7 262.2 272 260.5 L 270 258.5 L 270 257.5 Q 268.8 257.3 269 255.5 L 267 253.5 L 267 252.5 L 265 250.5 L 265 249.5 L 264 248.5 L 264 247.5 Q 262.7 247.2 263 245.5 L 261 243.5 Q 261.2 241.7 260 241.5 L 260 239.5 Q 258.8 239.3 259 237.5 L 256 234.5 L 256 232.5 Q 254.8 232.3 255 230.5 L 252 227.5 L 252 226.5 L 251 225.5 L 251 224.5 L 250 223.5 L 250 222.5 L 249 221.5 L 249 220.5 Q 247.8 220.3 248 218.5 L 246 216.5 L 246 215.5 L 245 214.5 L 245 213.5 Q 243.7 213.2 244 211.5 L 242 209.5 L 242 208.5 L 240 205.5 L 240 202.5 Q 241.3 202.3 241 200.5 L 243 198.5 L 243 197.5 Q 244.2 197.2 244 195.5 L 248 190.5 L 248 189.5 Q 249.2 189.3 249 187.5 L 251 185.5 L 251 184.5 L 255 179.5 L 255 178 L 258 178 L 258 179.5 L 259 180.5 L 259 181.5 L 260 182.5 L 260 183.5 Q 261.3 183.7 261 185.5 L 263 187.5 L 263 189.5 Q 264.3 189.8 264 191.5 L 267 194.5 L 267 196.5 Q 268.3 196.7 268 198.5 L 270 200.5 L 270 201.5 L 271 202.5 L 271 203.5 L 272 204.5 L 272 205.5 Q 273.3 205.7 273 207.5 L 275 209.5 L 275 210.5 L 276 211.5 L 276 212.5 L 277 213.5 L 277 214.5 Q 278.3 214.7 278 216.5 L 280 218.5 L 280 219.5 L 281 220.5 L 281 221.5 Q 282.3 221.8 282 223.5 L 284 225.5 L 284 226.5 L 285 227.5 L 285 228.5 L 286 229.5 L 286 230.5 Q 287.3 230.7 287 232.5 L 289 234.5 L 289 235.5 L 290 236.5 L 290 237.5 Q 291.3 237.7 291 239.5 L 293 241.5 L 293 242.5 L 294 243.5 L 294 244.5 L 295 245.5 L 295 246.5 Q 296.3 246.7 296 248.5 L 298 250.5 L 298 252.5 L 302 257.5 L 302 259.5 L 303 260.5 L 303 261.5 Q 304.3 261.8 304 263.5 L 306 265.5 L 306 266.5 L 307 267.5 L 307 268.5 L 308 269.5 L 308 270.5 Q 309.3 270.8 309 272.5 L 311.5 275 L 314 272.5 L 314 271.5 L 315 270.5 L 315 269.5 L 317 266.5 L 317 264.5 L 318 263.5 L 318 262.5 L 319 261.5 L 319 260.5 L 320 259.5 L 320 258.5 L 322 255.5 L 322 253.5 L 323 252.5 L 323 251.5 L 324 250.5 L 324 249.5 L 326 246.5 L 326 244.5 L 327 243.5 L 327 242.5 L 328 241.5 L 328 240.5 L 329 239.5 L 329 238.5 L 331 235.5 L 331 233.5 L 333 231.5 Q 332.7 229.7 334 229.5 L 334 227.5 L 335 226.5 L 335 225.5 L 336 224.5 L 336 223.5 L 337 222.5 L 337 221.5 L 339 218.5 L 339 216.5 L 340 215.5 L 340 214.5 L 341 213.5 L 341 212.5 L 343 209.5 L 343 207.5 L 344 206.5 L 344 205.5 L 345 204.5 L 345 203.5 L 346 202.5 L 346 201.5 L 347 200.5 L 347 199.5 L 349 196.5 L 349 194.5 L 351 192.5 L 351 190.5 L 353 187.5 L 353 185.5 L 354 184.5 L 354 183.5 L 355 182.5 L 355 181.5 L 357 178.5 L 357 176.5 L 358 175.5 L 358 174.5 L 359 173.5 L 359 172.5 L 360 171.5 L 360 170.5 L 362 167.5 L 362 165.5 L 364 163.5 Q 363.7 161.7 365 161.5 L 365 159.5 L 366 158.5 L 366 157.5 L 367 156.5 L 367 155.5 L 369 152.5 L 369 150.5 L 370 149.5 L 370 148.5 L 371 147.5 L 371 146.5 L 372 145.5 L 372 144.5 L 373 143.5 L 373 142.5 L 375 139.5 L 375 137.5 L 376 136.5 L 376 135.5 L 378 132.5 L 378 130.5 L 379 129.5 L 379 128.5 L 380 127.5 L 380 126.5 L 381 125.5 L 381 124.5 L 382 123.5 L 382 122.5 Q 383.3 122.3 383 120.5 L 384 119.5 L 384 117.5 L 386 115.5 Q 385.7 113.7 387 113.5 L 387 111.5 L 388 110.5 L 388 109.5 L 389 108.5 L 389 107.5 L 390 106.5 L 390 105.5 L 392 102.5 L 392 100.5 L 393 99.5 L 393 98.5 L 394 97.5 L 394 96.5 L 396 93.5 L 396 91.5 L 397 90.5 L 397 89.5 L 398 88.5 L 398 87.5 L 400 84.5 L 400 82.5 L 401 81.5 L 401 80.5 L 402 79.5 L 402 78.5 L 403 77.5 L 403 76.5 L 405 73.5 L 405 71.5 L 406 70.5 L 406 69.5 L 407 68.5 L 407 67.5 L 408 66.5 L 408 65.5 Q 409.2 65.3 409 63.5 L 410 62.5 L 410 60.5 L 411 59.5 L 411 58.5 L 412 57.5 L 412 56.5 L 414 53.5 L 414 51.5 L 415 50.5 L 415 49.5 L 416 48.5 L 416 47.5 L 418 44.5 L 418 43 L 416.5 43 L 415.5 42 L 411.5 42 L 410.5 43 L 387.5 43 L 386.5 42 L 382.5 42 Q 382.2 43.2 380.5 43 L 379 44.5 L 379 45.5 L 378 46.5 L 378 47.5 L 376 50.5 L 376 52.5 L 374 54.5 Q 374.2 56.2 373 56.5 L 373 58.5 L 369 64.5 L 369 66.5 L 368 67.5 L 368 68.5 Q 366.8 68.8 367 70.5 L 365 72.5 L 365 74.5 L 364 75.5 L 364 76.5 Q 362.8 76.8 363 78.5 L 361 80.5 L 361 82.5 L 360 83.5 L 360 84.5 L 359 85.5 L 359 86.5 L 358 87.5 L 358 88.5 L 357 89.5 L 357 90.5 L 356 91.5 L 356 92.5 L 354 95.5 L 354 97.5 L 352 99.5 L 352 100.5 L 350 103.5 L 350 105.5 L 348 107.5 L 348 108.5 L 346 111.5 L 346 113.5 L 344 115.5 L 344 116.5 L 343 117.5 L 343 118.5 L 341 121.5 L 341 123.5 L 339 125.5 Q 339.2 127.2 338 127.5 L 338 129.5 Q 336.7 129.8 337 131.5 L 335 133.5 L 335 134.5 L 333 137.5 L 333 139.5 Q 331.8 139.8 332 141.5 L 330 143.5 Q 330.2 145.2 329 145.5 L 329 147.5 Q 327.7 147.7 328 149.5 L 326 151.5 L 326 153.5 L 325 154.5 L 325 155.5 L 324 156.5 L 324 157.5 Q 322.8 157.8 323 159.5 L 321 161.5 L 321 163.5 L 320 164.5 L 320 165.5 L 319 166.5 L 319 167.5 L 318 168.5 L 318 169.5 L 317 170.5 L 317 171.5 L 316 172.5 L 316 173.5 L 315 174.5 L 315 175.5 L 314 176.5 L 314 177.5 L 312 180.5 L 312 182 Q 309.9 182.5 309 180.5 L 309 178.5 Q 307.7 178.3 308 176.5 L 306 174.5 L 306 173.5 L 305 172.5 L 305 171.5 L 304 170.5 L 304 169.5 L 303 168.5 L 303 167.5 L 302 166.5 L 302 165.5 L 301 164.5 L 301 163.5 L 300 162.5 L 300 161.5 L 299 160.5 L 299 159.5 Q 297.8 159.2 298 157.5 L 296 155.5 Q 296.2 153.7 295 153.5 L 295 151.5 L 293 149.5 L 293 148.5 L 292 147.5 L 292 146.5 L 291 145.5 L 291 144.5 L 290 143.5 L 290 142.5 L 289 141.5 L 289 140.5 L 288 139.5 L 288 138.5 L 286 135.5 L 286 133.5 L 285 132.5 L 286 131.5 L 286 130.5 Q 287.3 130.2 287 128.5 L 290 125.5 L 290 124.5 Q 291.3 124.3 291 122.5 L 295 117.5 L 295 116.5 Q 296.3 116.3 296 114.5 L 298 112.5 L 298 111.5 L 300 109.5 L 300 108.5 L 304 103.5 L 304 102.5 Q 305.3 102.2 305 100.5 L 308 97.5 L 308 96.5 Q 309.3 96.2 309 94.5 L 312 91.5 L 312 90.5 L 313 89.5 L 313 88.5 Q 314.3 88.2 314 86.5 L 317 83.5 L 317 82.5 Q 318.3 82.3 318 80.5 L 320 78.5 L 320 77.5 L 322 75.5 L 322 74.5 L 326 69.5 L 326 68.5 Q 327.3 68.3 327 66.5 L 329 64.5 L 329 63.5 L 331 61.5 L 331 60.5 L 333 58.5 L 333 57.5 L 335 55.5 L 335 54.5 L 339 49.5 L 339 48.5 Q 340.3 48.3 340 46.5 L 343 43.5 L 343 42.5 Q 344.3 42.3 344 40.5 L 346 38.5 L 346 37.5 L 348 35.5 L 348 34.5 L 352 29.5 L 352 28.5 Q 353.3 28.2 353 26.5 L 355 24.5 L 355 23.5 L 357 21.5 L 357 20.5 L 361 15.5 L 361 14.5 Q 362.3 14.2 362 12.5 L 364 10.5 L 364 9.5 L 367.5 6 Z "></path><path fill="rgb(0,0,0)" stroke="rgb(0,0,0)" stroke-width="1.5" opacity="0" d="M 231.5 12 L 232 12.5 L 232 100.5 L 232 101 L 231.5 101 L 183.5 101 L 182 99.5 L 182 64.5 L 186 60.5 L 186 59.5 L 200 45.5 L 200 44 L 201.5 44 L 202.5 43 L 203 43.5 L 203 79.5 L 204.5 81 L 209.5 81 Q 210.3 81.3 210 80.5 L 210 54.5 L 211 53.5 L 211 46.5 L 210 45.5 L 210 34.5 L 222 22.5 L 222 21 L 224 21 L 224 19.5 L 231.5 12 Z "></path><path fill="rgb(0,0,0)" stroke="rgb(0,0,0)" stroke-width="1.5" opacity="0" d="M 54.5 13 L 56 14.5 L 56 58.5 L 56 59 L 55.5 59 L 12.5 59 L 12 58.5 L 15 55.5 L 15 54.5 L 16.5 53 L 17.5 53 L 19 51.5 L 19 50.5 L 33 36.5 L 33 35.5 L 45 23.5 L 45 22.5 L 54.5 13 Z "></path><path fill="rgb(0,0,0)" stroke="rgb(0,0,0)" stroke-width="1.5" opacity="0" d="M 62 36 L 62.5 36 L 197.5 36 Q 198.5 35.6 198 37.5 L 188 47.5 L 188 48.5 L 186.5 50 Q 184.3 49.3 185 51.5 L 177.5 59 L 63.5 59 L 63 59 Q 63 58.5 63 56.5 L 62 55.5 Q 64 54.5 62 53.5 L 62 36.5 L 62 36 Z "></path><path fill="rgb(0,0,0)" stroke="rgb(0,0,0)" stroke-width="1.5" opacity="0" d="M 403.5 48 L 407.5 48 L 408 48.5 Q 406.3 49.2 407 52.5 L 405 54.5 L 405 56.5 L 403 59.5 L 403 61.5 Q 401.7 61.7 402 63.5 L 400 65.5 L 400 67.5 L 398 70.5 L 398 72.5 L 396 74.5 L 396 76.5 L 394 79.5 L 394 81.5 L 392 83.5 Q 392.2 85.2 391 85.5 L 391 87.5 L 389 90.5 L 389 92.5 L 387 94.5 Q 387.2 96.2 386 96.5 L 386 98.5 L 385 99.5 L 385 100.5 L 384 101.5 L 384 102.5 L 382 105.5 L 382 107.5 L 381 108.5 L 381 109.5 L 380 110.5 L 380 111.5 L 379 112.5 L 379 113.5 Q 377.7 113.8 378 115.5 L 377 116.5 L 377 118.5 L 376 119.5 L 376 120.5 L 375 121.5 L 375 122.5 L 374 123.5 L 374 124.5 L 372 127.5 L 372 129.5 L 370 131.5 L 370 133.5 L 369 134.5 L 369 135.5 L 367 138.5 L 367 140.5 L 365 142.5 L 365 144.5 L 363 147.5 L 363 149.5 L 361 151.5 Q 361.2 153.2 360 153.5 L 360 155.5 L 359 156.5 L 359 157.5 L 358 158.5 L 358 159.5 L 356 162.5 L 356 164.5 L 355 165.5 L 355 166.5 L 354 167.5 L 354 168.5 L 353 169.5 L 353 170.5 L 351 173.5 L 351 175.5 L 350 176.5 L 350 177.5 L 349 178.5 L 349 179.5 L 348 180.5 L 348 181.5 L 346 184.5 L 346 186.5 L 345 187.5 L 345 188.5 L 344 189.5 L 344 190.5 L 343 191.5 L 343 192.5 L 341 195.5 L 341 197.5 L 339 199.5 L 339 201.5 L 337 204.5 L 337 206.5 L 335 208.5 Q 335.2 210.2 334 210.5 L 334 212.5 Q 332.7 212.8 333 214.5 L 331.5 216 Q 330.8 215.8 331 214.5 L 329 212.5 L 329 211.5 L 327 209.5 L 327 208.5 Q 325.7 208.3 326 206.5 L 324 204.5 L 324 203.5 L 322 201.5 L 322 200.5 L 320 198.5 L 320 197.5 L 318 195.5 L 318 194.5 L 316 192.5 Q 316.2 190.7 315 190.5 L 316 189.5 L 316 187.5 L 317 186.5 L 317 185.5 L 318 184.5 L 318 183.5 L 319 182.5 L 319 181.5 L 320 180.5 L 320 179.5 L 321 178.5 L 321 177.5 L 322 176.5 L 322 175.5 Q 323.3 175.3 323 173.5 L 325 171.5 L 325 169.5 L 326 168.5 L 326 167.5 L 327 166.5 L 327 165.5 L 328 164.5 L 328 163.5 L 329 162.5 L 329 161.5 L 330 160.5 L 330 159.5 L 331 158.5 L 331 157.5 L 332 156.5 L 332 155.5 L 333 154.5 L 333 153.5 L 334 152.5 L 334 151.5 L 335 150.5 L 335 149.5 L 336 148.5 L 336 147.5 L 337 146.5 L 337 145.5 L 338 144.5 L 338 143.5 L 339 142.5 L 339 141.5 L 340 140.5 L 340 139.5 L 341 138.5 L 341 137.5 L 342 136.5 L 342 135.5 L 343 134.5 L 343 133.5 L 344 132.5 L 344 131.5 L 345 130.5 L 345 129.5 L 346 128.5 L 346 127.5 L 347 126.5 L 347 125.5 L 348 124.5 L 348 123.5 L 349 122.5 L 349 121.5 Q 350.3 121.2 350 119.5 L 351 118.5 L 351 117.5 L 352 116.5 L 352 115.5 L 353 114.5 L 353 112.5 L 355 110.5 L 355 109.5 L 357 106.5 L 357 104.5 Q 358.3 104.3 358 102.5 L 360 100.5 L 360 98.5 L 361 97.5 L 361 96.5 L 362 95.5 L 362 94.5 Q 363.3 94.3 363 92.5 L 365 90.5 Q 364.7 88.7 366 88.5 L 366 86.5 L 368 84.5 Q 367.7 82.7 369 82.5 L 369 80.5 L 370 79.5 L 370 78.5 L 371 77.5 L 371 76.5 L 372 75.5 L 372 74.5 L 373 73.5 L 373 72.5 L 374 71.5 L 374 70.5 L 375 69.5 L 375 68.5 L 376 67.5 L 376 66.5 L 378 63.5 L 378 62.5 L 379 61.5 L 379 59.5 L 381 57.5 L 381 56.5 L 382 55.5 L 382 54.5 L 383 53.5 L 383 52.5 Q 384.2 52.2 384 50.5 L 385.5 49 L 402.5 49 L 403.5 48 Z "></path><path fill="rgb(0,0,0)" stroke="rgb(0,0,0)" stroke-width="1.5" opacity="0" d="M 13.5 66 L 56.5 66 L 57 66.5 L 56 67.5 L 56 78.5 L 52 82.5 L 52 84 L 50 84 L 50 85.5 L 44.5 91 L 42.5 91 L 39.5 88 L 38.5 88 L 34.5 84 L 33.5 84 L 29.5 80 L 28 80 L 28 78 L 26.5 78 L 23.5 75 L 22.5 75 L 17.5 70 L 16.5 70 L 13 66.5 L 13.5 66 Z "></path><path fill="rgb(0,0,0)" stroke="rgb(0,0,0)" stroke-width="1.5" opacity="0" d="M 63 66 L 63.5 66 L 174.5 66 L 176 67.5 L 176 106.5 Q 177.3 106.7 177 108.5 L 179 110.5 L 179 111.5 L 180 112.5 L 180 113.5 Q 181.3 113.8 181 115.5 L 183 117.5 L 183 118.5 L 184 119.5 L 184 120.5 Q 185.3 120.8 185 122.5 L 187 124.5 L 187 125.5 L 189 128.5 L 189 129.5 L 190 130.5 L 190 131.5 L 192 133.5 L 192 134.5 L 193 135.5 L 193 136.5 L 194 137.5 L 194 138.5 Q 195.3 138.8 195 140.5 L 197 142.5 L 197 143.5 L 198 144.5 L 198 145.5 Q 199.3 145.7 199 147.5 L 201 149.5 L 201 150.5 L 202 151.5 L 202 152.5 Q 203.3 152.8 203 154.5 L 205 156.5 L 205 157.5 L 206 158.5 L 206 159.5 L 207 160.5 L 207 161.5 Q 208.3 161.8 208 163.5 L 210 165.5 L 210 166.5 L 211 167.5 L 211 168.5 Q 212.3 168.8 212 170.5 L 214 172.5 L 214 173.5 L 215 174.5 L 215 175.5 Q 216.3 175.8 216 177.5 L 218 179.5 L 218 180.5 L 219 181.5 L 219 182.5 L 220 183.5 L 220 184.5 Q 221.3 184.8 221 186.5 L 223 188.5 L 223 189.5 L 222.5 190 L 220.5 188 L 219.5 188 L 216.5 185 Q 214.7 185.2 214.5 184 L 213 184 L 213 182 L 211.5 182 L 209.5 180 L 208.5 180 L 205.5 177 L 204.5 177 L 201.5 174 L 200.5 174 L 197.5 171 L 196.5 171 L 193.5 168 L 192.5 168 L 189.5 165 L 188.5 165 L 183.5 161 L 182 161 L 182 159 L 180.5 159 L 177.5 156 L 176.5 156 L 174.5 154 L 173.5 154 L 170.5 151 L 169.5 151 L 167.5 149 L 166.5 149 L 162.5 145 L 161.5 145 L 158.5 142 L 157.5 142 L 155.5 140 L 154.5 140 L 151.5 137 L 150.5 137 L 146.5 133 L 145.5 133 L 143.5 131 L 142.5 131 L 139.5 128 L 138.5 128 L 135.5 125 L 134.5 125 L 131.5 122 L 130.5 122 L 127.5 119 L 126.5 119 L 124.5 117 L 123.5 117 L 120.5 114 L 119.5 114 L 117.5 112 L 116 112 L 116 110 L 114.5 110 L 112.5 108 L 111.5 108 L 108.5 105 L 107.5 105 L 105.5 103 L 104.5 103 L 100.5 99 L 99.5 99 L 96.5 96 L 95.5 96 L 92.5 93 L 91.5 93 L 89.5 91 L 88.5 91 L 86.5 89 L 85.5 89 L 81.5 85 L 80.5 85 L 77.5 82 L 76.5 82 L 74.5 80 L 73.5 80 L 69.5 76 L 68.5 76 L 65.5 73 L 64.5 73 L 62 70.5 L 63 69.5 Q 63 66.8 63 66 Z "></path><path fill="rgb(0,0,0)" stroke="rgb(0,0,0)" stroke-width="1.5" opacity="0" d="M 7.5 71 Q 7.8 72.2 9.5 72 L 14.5 77 L 15.5 77 L 20.5 82 L 21.5 82 L 25.5 86 L 26.5 86 L 31.5 91 L 32.5 91 L 36.5 95 L 37.5 95 L 39 96.5 L 36 99.5 L 36 100.5 L 21 115.5 L 21 117 L 19 117 L 19 118.5 L 6.5 131 L 6 130.5 L 7 129.5 L 7 71.5 L 7.5 71 Z "></path><path fill="rgb(0,0,0)" stroke="rgb(0,0,0)" stroke-width="1.5" opacity="0" d="M 62 81 Q 62.5 81 64.5 81 L 66.5 83 L 67.5 83 L 70.5 86 L 71.5 86 Q 71.7 87.3 73.5 87 L 77.5 91 L 78.5 91 L 80.5 93 L 81.5 93 L 85.5 97 L 86.5 97 L 89.5 100 L 90.5 100 L 92.5 102 L 93.5 102 L 96.5 105 L 97.5 105 L 101.5 109 L 102.5 109 L 104.5 111 L 105.5 111 L 108.5 114 L 109.5 114 L 112.5 117 L 113.5 117 L 116.5 120 L 117.5 120 L 120.5 123 L 121.5 123 L 123.5 125 L 124.5 125 L 128.5 129 L 129.5 129 L 131.5 131 L 132.5 131 L 135.5 134 L 136.5 134 L 139.5 137 L 140.5 137 L 142.5 139 L 143.5 139 L 146.5 142 L 147.5 142 L 151.5 146 L 152.5 146 L 155.5 149 L 156.5 149 L 158.5 151 L 159.5 151 L 163.5 155 L 164.5 155 L 167.5 158 L 168.5 158 L 170.5 160 L 171.5 160 L 173.5 162 L 174.5 162 L 177.5 165 L 178.5 165 L 182.5 169 L 183.5 169 L 185.5 171 L 186.5 171 L 189.5 174 L 190.5 174 L 194.5 178 L 195.5 178 L 198.5 181 L 199.5 181 L 201.5 183 L 202.5 183 L 205.5 186 L 206.5 186 L 208.5 188 L 209.5 188 L 212.5 191 L 213.5 191 L 217.5 195 L 218.5 195 L 220.5 197 L 221.5 197 L 225.5 201 L 226.5 201 L 230 204.5 L 230 205.5 Q 228.8 205.7 229 207.5 L 225 212.5 L 225 213.5 Q 223.8 213.7 224 215.5 L 222 217.5 L 222 218.5 L 220 220.5 L 220 221.5 L 218 223.5 L 218 224.5 L 215 227.5 L 215 228.5 Q 213.7 228.7 214 230.5 L 212.5 232 Q 211.8 231.8 212 230.5 L 209.5 228 L 208.5 228 L 203.5 223 L 202.5 223 L 197.5 218 L 196.5 218 L 192.5 214 L 191.5 214 L 187.5 210 L 186.5 210 L 181.5 205 L 180.5 205 L 175.5 200 L 174.5 200 L 170.5 196 L 169.5 196 L 164.5 191 L 163.5 191 L 158.5 186 L 157.5 186 L 153.5 182 L 152.5 182 L 148.5 178 L 147.5 178 L 141.5 172 L 140.5 172 L 136.5 168 L 135.5 168 L 131.5 164 L 130.5 164 L 126.5 160 L 125.5 160 L 119.5 154 L 118.5 154 L 113.5 149 L 112.5 149 L 109.5 146 L 108.5 146 L 104.5 142 L 103 142 L 103 140 L 101.5 140 L 96.5 135 L 95.5 135 L 92.5 132 L 91.5 132 L 87.5 128 L 86.5 128 L 82.5 124 L 81 124 L 81 122 L 79.5 122 L 74.5 117 L 73.5 117 L 69.5 113 L 68.5 113 L 65.5 110 L 64 110 L 64 108 L 62.5 108 L 57.5 103 L 56.5 103 L 51.5 98 L 50 98 L 50 96.5 L 49.5 96 L 48.5 97 L 48 96.5 L 50 94.5 L 50 93.5 L 51.5 92 L 52.5 92 L 62 82.5 L 62 81 Z "></path><path fill="rgb(0,0,0)" stroke="rgb(0,0,0)" stroke-width="1.5" opacity="0" d="M 43.5 102 L 45.5 102 L 49.5 106 L 50.5 106 L 54.5 110 L 55.5 110 L 59.5 114 L 60.5 114 L 67.5 121 L 68.5 121 L 72.5 125 L 73.5 125 L 76.5 128 L 77.5 128 L 81.5 132 L 82.5 132 L 87.5 137 L 88.5 137 L 93.5 142 L 94.5 142 L 98.5 146 L 99.5 146 L 104.5 151 L 105.5 151 L 110.5 156 L 111.5 156 L 116.5 161 L 117.5 161 L 121.5 165 L 122.5 165 L 126.5 169 L 127.5 169 L 132.5 174 L 133.5 174 L 138.5 179 L 139.5 179 L 143.5 183 L 145 183 L 145 185 L 146.5 185 L 150.5 189 L 151.5 189 L 155.5 193 L 156.5 193 L 160.5 197 L 161.5 197 L 166.5 202 L 167.5 202 L 172.5 207 L 173.5 207 L 177.5 211 L 178.5 211 L 184.5 217 L 185.5 217 L 188.5 220 L 189.5 220 L 194.5 225 L 195.5 225 L 199.5 229 L 200.5 229 L 205.5 234 L 206.5 234 L 209 236.5 L 209 237.5 L 207 239.5 L 207 240.5 Q 205.7 240.7 206 242.5 L 202 247.5 L 202 248.5 Q 200.8 248.7 201 250.5 L 198 253.5 L 198 254.5 Q 196.7 254.8 197 256.5 L 193 261.5 L 193 262.5 Q 191.8 262.7 192 264.5 L 189 267.5 L 189 268.5 Q 187.7 268.8 188 270.5 L 185 273.5 L 185 274.5 L 183.5 276 L 183 275.5 L 183 250.5 Q 181.5 250 182 247.5 L 179.5 245 L 178.5 245 Q 178.3 243.7 176.5 244 L 174.5 242 L 173.5 242 L 168.5 238 L 167.5 238 Q 167.2 236.8 165.5 237 L 163.5 235 L 162.5 235 L 157.5 231 L 156.5 231 Q 156.3 229.8 154.5 230 L 149.5 226 L 148.5 226 Q 148.2 224.7 146.5 225 L 141.5 221 L 140.5 221 Q 140.3 219.8 138.5 220 L 136.5 218 L 135.5 218 L 133.5 216 L 132.5 216 L 127.5 212 L 126.5 212 Q 126.3 210.8 124.5 211 L 119.5 207 L 118.5 207 Q 118.3 205.7 116.5 206 L 111.5 202 L 110.5 202 Q 110.2 200.8 108.5 201 L 106.5 199 L 105.5 199 Q 105.2 197.7 103.5 198 L 101.5 196 L 100.5 196 Q 100.2 194.8 98.5 195 L 96.5 193 L 95.5 193 L 90.5 189 L 89.5 189 Q 89.3 187.7 87.5 188 L 85.5 186 L 84.5 186 L 79.5 182 L 78.5 182 Q 78.3 180.7 76.5 181 L 71.5 177 L 70.5 177 Q 70.3 175.8 68.5 176 L 66.5 174 L 65.5 174 L 60.5 170 L 59.5 170 L 58.5 169 L 57.5 169 Q 57.3 167.8 55.5 168 L 50.5 164 L 49.5 164 Q 49.3 162.7 47.5 163 L 45.5 161 L 44.5 161 L 39.5 157 L 38.5 157 Q 38.3 155.8 36.5 156 L 34.5 154 L 33.5 154 L 28.5 150 L 27.5 150 Q 27.2 148.8 25.5 149 L 23.5 147 L 22.5 147 Q 22.3 145.7 20.5 146 L 18.5 144 L 17.5 144 L 15.5 142 L 14.5 142 L 12.5 140 L 11.5 140 L 10 138.5 L 10 137.5 Q 11.3 137.3 11 135.5 L 12.5 134 L 13.5 134 L 16 131.5 L 16 130 L 18 130 L 18 128.5 L 32 114.5 L 32 113.5 L 43.5 102 Z "></path><path fill="rgb(0,0,0)" stroke="rgb(0,0,0)" stroke-width="1.5" opacity="0" d="M 186 107 L 186.5 107 L 217.5 107 L 219 108.5 L 219 109.5 L 220 110.5 L 220 111.5 Q 221.3 111.7 221 113.5 L 223 115.5 L 223 116.5 L 224 117.5 L 224 118.5 Q 225.3 118.8 225 120.5 L 227 122.5 L 227 123.5 L 228 124.5 L 228 125.5 L 230 128.5 L 230 129.5 L 231 130.5 L 231 131.5 L 232 132.5 L 232 133.5 L 233 134.5 L 233 135.5 Q 234.3 135.7 234 137.5 L 238 142.5 L 238 143.5 L 239 144.5 L 239 145.5 L 240 146.5 L 240 147.5 L 241 148.5 L 241 149.5 L 242 150.5 L 242 151.5 Q 243.3 151.8 243 153.5 L 245 155.5 L 245 156.5 L 246 157.5 L 246 158.5 Q 247.2 158.8 247 160.5 L 249 162.5 L 249 163.5 L 250 164.5 L 250 165.5 L 252 168.5 L 252 170.5 L 251 171.5 L 251 172.5 L 250 173.5 L 250 174.5 Q 248.8 174.7 249 176.5 L 246 179.5 L 246 180.5 Q 244.7 180.8 245 182.5 L 241 187.5 L 241 188.5 Q 239.8 188.7 240 190.5 L 237 193.5 L 237 194.5 L 236 195.5 Q 236.3 196.8 235.5 197 L 234 195.5 L 234 194.5 Q 232.8 194.2 233 192.5 L 231 190.5 L 231 189.5 L 230 188.5 L 230 187.5 L 229 186.5 L 229 185.5 Q 227.8 185.2 228 183.5 L 226 181.5 L 226 180.5 L 225 179.5 L 225 178.5 L 224 177.5 L 224 176.5 Q 222.7 176.2 223 174.5 L 221 172.5 L 221 171.5 L 220 170.5 L 220 169.5 Q 218.8 169.3 219 167.5 L 217 165.5 L 217 163.5 Q 215.7 163.3 216 161.5 L 213 158.5 Q 213.2 156.7 212 156.5 L 212 154.5 L 208 149.5 L 208 148.5 L 207 147.5 L 207 146.5 L 206 145.5 L 206 144.5 L 205 143.5 L 205 142.5 L 204 141.5 L 204 140.5 L 203 139.5 L 203 138.5 Q 201.8 138.3 202 136.5 L 200 134.5 L 200 133.5 L 199 132.5 L 199 131.5 Q 197.7 131.3 198 129.5 L 196 127.5 L 196 126.5 Q 194.8 126.3 195 124.5 L 193 122.5 L 193 121.5 L 192 120.5 L 192 119.5 Q 190.7 119.2 191 117.5 L 189 115.5 L 189 113.5 L 187 111.5 Q 187.2 109.7 186 109.5 Q 186 107.5 186 107 Z "></path><path fill="rgb(0,0,0)" stroke="rgb(0,0,0)" stroke-width="1.5" opacity="0" d="M 226 107 L 226.5 107 L 263.5 107 Q 264.5 106.6 264 108.5 L 266 110.5 L 266 111.5 L 267 112.5 L 267 113.5 L 268 114.5 L 268 115.5 Q 269.3 115.7 269 117.5 L 271 119.5 L 271 121.5 L 272 122.5 L 272 123.5 L 273 124.5 L 273 125.5 Q 274.3 125.7 274 127.5 L 276 129.5 L 276 133.5 Q 274.8 133.8 275 135.5 L 273 137.5 L 273 138.5 Q 271.7 138.8 272 140.5 L 269 143.5 L 269 144.5 Q 267.8 144.7 268 146.5 L 266 148.5 L 266 149.5 L 264 151.5 L 264 152.5 L 260 157.5 L 260 158.5 L 259 159.5 L 259 160.5 Q 257.8 160.8 258 162.5 L 256.5 164 L 256 163.5 L 257 162.5 L 256 161.5 L 256 160.5 Q 254.8 160.3 255 158.5 L 253 156.5 L 253 155.5 L 251 153.5 L 251 152.5 Q 249.7 152.3 250 150.5 L 248 148.5 L 248 147.5 L 247 146.5 L 247 145.5 L 246 144.5 L 246 143.5 L 245 142.5 L 245 141.5 L 244 140.5 L 244 139.5 L 243 138.5 L 243 137.5 Q 241.8 137.3 242 135.5 L 240 133.5 L 240 132.5 L 239 131.5 L 239 130.5 L 237 127.5 L 237 126.5 L 235 124.5 L 235 123.5 L 234 122.5 L 234 121.5 Q 232.8 121.2 233 119.5 L 231 117.5 L 231 116.5 L 230 115.5 L 230 114.5 L 229 113.5 L 229 112.5 Q 227.8 112.3 228 110.5 L 226 108.5 L 226 107 Z "></path><path fill="rgb(0,0,0)" stroke="rgb(0,0,0)" stroke-width="1.5" opacity="0" d="M 0.5 140 L 4.5 144 L 5.5 144 Q 5.8 145.3 7.5 145 L 9.5 147 L 10.5 147 Q 10.7 148.2 12.5 148 L 14.5 150 L 15.5 150 Q 15.7 151.2 17.5 151 L 19.5 153 Q 21.5 153 22 153 L 22 155 L 23.5 155 Q 23.8 156.2 25.5 156 L 27.5 158 L 28.5 158 L 30.5 160 L 31.5 160 L 33.5 162 L 34.5 162 Q 34.7 163.3 36.5 163 L 38.5 165 L 39.5 165 L 40.5 166 L 41.5 166 Q 41.8 167.3 43.5 167 L 46.5 170 L 47.5 170 L 49.5 172 L 50.5 172 Q 50.8 173.3 52.5 173 L 57.5 177 L 58.5 177 Q 58.8 178.3 60.5 178 L 63.5 181 L 64.5 181 L 65.5 182 L 66.5 182 Q 66.7 183.2 68.5 183 L 71.5 186 L 72.5 186 L 73.5 187 L 74.5 187 Q 74.8 188.2 76.5 188 L 78.5 190 L 79.5 190 L 84.5 194 L 85.5 194 Q 85.8 195.3 87.5 195 L 89.5 197 L 90.5 197 Q 90.8 198.3 92.5 198 L 97.5 202 L 98.5 202 Q 98.7 203.3 100.5 203 L 102.5 205 L 103.5 205 L 105.5 207 L 106.5 207 L 111.5 211 L 112.5 211 Q 112.8 212.3 114.5 212 L 119.5 216 L 120.5 216 Q 120.8 217.3 122.5 217 L 124.5 219 L 125.5 219 Q 125.7 220.2 127.5 220 L 129.5 222 L 130.5 222 L 132.5 224 L 133.5 224 Q 133.8 225.3 135.5 225 L 140.5 229 L 141.5 229 Q 141.8 230.3 143.5 230 L 148.5 234 L 149.5 234 Q 149.8 235.2 151.5 235 L 153.5 237 L 154.5 237 L 156.5 239 L 157.5 239 L 162.5 243 L 163.5 243 Q 163.7 244.2 165.5 244 L 167.5 246 L 168.5 246 Q 168.8 247.2 170.5 247 L 172.5 249 L 173.5 249 L 176 251.5 L 176 276.5 Q 176.3 277.3 175.5 277 L 62.5 277 L 62 277 Q 62 276.5 62 274.5 L 63 273.5 L 62 272.5 Q 64 271.5 62 270.5 L 62 243.5 L 63 242.5 L 63 217.5 L 63 217 L 61.5 217 L 60.5 218 L 59 218 L 59 219.5 L 22 256.5 L 22 258 L 20.5 258 L 18 260.5 L 18 261.5 L 16.5 263 Q 14.3 262.3 15 264.5 L 0.5 279 L 0 278.5 L 0 140.5 L 0.5 140 Z "></path><path fill="rgb(0,0,0)" stroke="rgb(0,0,0)" stroke-width="1.5" opacity="0" d="M 280.5 140 Q 281.3 140.3 281 141.5 L 283 143.5 L 283 144.5 L 284 145.5 L 284 146.5 L 285 147.5 L 285 148.5 L 286 149.5 L 286 150.5 Q 287.3 150.8 287 152.5 L 289 154.5 Q 288.7 156.2 290 156.5 L 290 158.5 Q 291.3 158.8 291 160.5 L 293 162.5 L 293 163.5 L 294 164.5 L 294 166.5 Q 295.3 166.8 295 168.5 L 297 170.5 L 297 171.5 L 298 172.5 L 298 173.5 L 299 174.5 L 299 175.5 Q 300.3 175.8 300 177.5 L 302 179.5 L 302 181.5 L 303 182.5 L 303 183.5 L 304 184.5 L 304 185.5 L 305 186.5 L 305 187.5 L 306 188.5 L 306 189.5 Q 307.3 189.8 307 191.5 L 309 193.5 L 309 194.5 L 311 196.5 L 311 197.5 L 313 199.5 L 313 200.5 L 315 202.5 L 315 203.5 L 317 205.5 L 317 206.5 L 320 209.5 L 320 210.5 Q 321.2 210.7 321 212.5 L 323 214.5 L 323 215.5 L 325 217.5 L 325 218.5 L 328 221.5 L 328 225.5 L 327 226.5 L 327 227.5 L 325 230.5 L 325 232.5 L 324 233.5 L 324 234.5 L 323 235.5 L 323 236.5 L 322 237.5 L 322 238.5 L 320 241.5 L 320 243.5 L 319 244.5 L 319 245.5 L 318 246.5 L 318 247.5 L 316 250.5 L 316 252.5 Q 314.7 252.8 315 254.5 L 313 256.5 Q 313.2 258.2 312 258.5 Q 312.5 260.5 311.5 261 L 309 258.5 L 309 256.5 Q 307.7 256.3 308 254.5 L 305 251.5 L 305 250.5 L 304 249.5 L 304 248.5 L 303 247.5 L 303 246.5 L 302 245.5 L 302 244.5 L 301 243.5 L 301 242.5 L 300 241.5 L 300 240.5 L 299 239.5 L 299 238.5 Q 297.8 238.2 298 236.5 L 296 234.5 L 296 233.5 L 295 232.5 L 295 231.5 Q 293.7 231.2 294 229.5 L 292 227.5 L 292 226.5 L 291 225.5 L 291 224.5 Q 289.7 224.2 290 222.5 L 288 220.5 L 288 219.5 L 287 218.5 L 287 217.5 L 286 216.5 L 286 215.5 Q 284.7 215.2 285 213.5 L 283 211.5 L 283 210.5 L 282 209.5 L 282 208.5 L 281 207.5 L 281 206.5 Q 279.7 206.2 280 204.5 L 278 202.5 L 278 201.5 L 277 200.5 L 277 199.5 Q 275.8 199.3 276 197.5 L 274 195.5 L 274 193.5 L 273 192.5 L 273 191.5 Q 271.7 191.3 272 189.5 L 270 187.5 L 270 186.5 L 269 185.5 L 269 184.5 Q 267.8 184.3 268 182.5 L 266 180.5 L 266 179.5 Q 264.7 179.2 265 177.5 L 263 175.5 L 263 174.5 L 261 171.5 L 261 168.5 L 264 165.5 L 264 164.5 Q 265.3 164.3 265 162.5 L 269 157.5 L 269 156.5 Q 270.3 156.3 270 154.5 L 273 151.5 L 273 150.5 Q 274.3 150.2 274 148.5 L 276 146.5 L 276 145.5 L 278 143.5 L 278 142.5 L 280.5 140 Z "></path><path fill="rgb(0,0,0)" stroke="rgb(0,0,0)" stroke-width="1.5" opacity="0" d="M 231.5 216 L 232 216.5 L 232 276.5 L 232 277 L 231.5 277 L 192.5 277 Q 191.5 277.4 192 275.5 L 194 273.5 L 194 272.5 Q 195.3 272.3 195 270.5 L 197 268.5 L 197 267.5 L 199 265.5 L 199 264.5 L 201 262.5 L 201 261.5 L 203 259.5 L 203 258.5 L 205 256.5 L 205 255.5 L 207 253.5 L 207 252.5 Q 208.3 252.3 208 250.5 L 211 247.5 L 211 246.5 Q 212.3 246.3 212 244.5 L 215 241.5 L 215 240.5 L 217 238.5 L 217 237.5 L 219 235.5 L 219 234.5 L 223 229.5 L 223 228.5 Q 224.3 228.3 224 226.5 L 226 224.5 L 226 223.5 L 228 221.5 L 228 220.5 L 230 218.5 L 230 217.5 L 231.5 216 Z "></path><path fill="rgb(0,0,0)" stroke="rgb(0,0,0)" stroke-width="1.5" opacity="0" d="M 238.5 217 L 240 218.5 L 240 219.5 L 241 220.5 L 241 221.5 Q 242.3 221.8 242 223.5 L 244 225.5 L 244 226.5 L 245 227.5 L 245 228.5 Q 246.3 228.7 246 230.5 L 248 232.5 L 248 233.5 L 249 234.5 L 249 235.5 L 250 236.5 L 250 237.5 Q 251.3 237.7 251 239.5 L 253 241.5 L 253 242.5 L 254 243.5 L 254 244.5 Q 255.3 244.7 255 246.5 L 257 248.5 L 257 249.5 L 258 250.5 L 258 251.5 L 259 252.5 L 259 253.5 Q 260.3 253.7 260 255.5 L 262 257.5 L 262 258.5 L 263 259.5 L 263 260.5 Q 264.3 260.8 264 262.5 L 266 264.5 L 266 265.5 L 267 266.5 L 267 267.5 Q 268.3 267.8 268 269.5 L 271 272.5 L 271 274.5 Q 272.3 274.8 272 276.5 L 274 278.5 L 274 279.5 L 275 280.5 L 275 281.5 L 276 282.5 L 276 283.5 L 277 284.5 L 277 285.5 Q 278.3 285.8 278 287.5 L 280 289.5 L 280 290.5 Q 281.3 290.8 281 292.5 L 285 297.5 L 285 298.5 L 286 299.5 L 286 300.5 L 287 301.5 L 287 302.5 L 288 303.5 L 288 304.5 L 289 305.5 L 289 306.5 Q 290.3 306.7 290 308.5 L 292 310.5 L 292 311.5 L 293 312.5 L 293 313.5 Q 294.2 313.7 294 315.5 L 298 320.5 L 298 321.5 L 299 322.5 L 299 323.5 Q 300.3 323.7 300 325.5 L 302 327.5 L 302 328.5 L 303 329.5 L 303 330.5 Q 304.3 330.8 304 332.5 L 306 334.5 L 306 335.5 L 307 336.5 L 307 337.5 L 308 338.5 L 308 339.5 L 309 340.5 L 309 341.5 Q 310.2 341.7 310 343.5 L 312 345.5 L 312 347.5 L 315 350.5 L 315 352 L 314.5 352 L 0.5 352 Q -0.3 352.3 0 351.5 L 0 282.5 L 0.5 282 L 6 287.5 L 6 288.5 L 19 301.5 L 19 302.5 L 35 318.5 L 35 319.5 L 48 332.5 L 48 333.5 L 57.5 343 L 181.5 343 L 191 333.5 L 191 332.5 L 204 319.5 L 204 318.5 L 205.5 317 Q 207.8 317.8 207 315.5 L 222 300.5 L 222 299.5 L 235 286.5 L 235 285.5 L 239 281.5 L 239 218.5 L 238 217.5 L 238.5 217 Z "></path><path fill="rgb(0,0,0)" stroke="rgb(0,0,0)" stroke-width="1.5" opacity="0" d="M 55.5 233 L 56 233.5 L 56 247.5 L 57 248.5 L 57 258.5 L 56 259.5 L 56 267.5 Q 57.5 268 57 270.5 L 56 271.5 L 56 276.5 L 56 277 L 55.5 277 L 12.5 277 L 12 276.5 L 46 242.5 L 46 241 L 47.5 241 L 49 239.5 L 49 238.5 L 53.5 234 Q 55.2 234.2 55.5 233 Z "></path><path fill="rgb(0,0,0)" stroke="rgb(0,0,0)" stroke-width="1.5" opacity="0" d="M 18.5 283 L 48.5 283 Q 49 284.5 51.5 284 Q 51.7 282.7 53.5 283 L 54.5 284 L 56 284 L 56 284.5 L 56 298.5 Q 57.5 299 57 301.5 L 56 302.5 L 56 310.5 L 57 311.5 L 57 315.5 L 56 316.5 L 56 330.5 L 55.5 331 L 42 317.5 L 42 316.5 L 32 306.5 L 32 305.5 L 30.5 304 Q 28.3 304.8 29 302.5 L 16 289.5 L 16 288.5 L 12.5 285 Q 11.3 285.3 11 284.5 L 11.5 284 L 17.5 284 L 18.5 283 Z "></path><path fill="rgb(0,0,0)" stroke="rgb(0,0,0)" stroke-width="1.5" opacity="0" d="M 65.5 283 L 81.5 283 Q 81.8 284.3 83.5 284 L 84.5 283 L 96.5 283 Q 97 284.5 99.5 284 L 100.5 283 L 112.5 283 Q 113 284.5 115.5 284 L 116.5 283 L 120.5 283 Q 121.5 285 122.5 283 L 128.5 283 Q 128.7 284.3 130.5 284 L 131.5 283 L 136.5 283 Q 137 284.5 139.5 284 Q 140 282.5 142.5 283 L 143.5 284 L 153.5 284 L 154.5 283 L 172.5 283 L 173.5 284 Q 175.5 284 176 284 Q 176 284.8 176 287.5 Q 174.8 287.8 175 289.5 L 173 291.5 L 173 292.5 Q 171.7 292.8 172 294.5 L 170 296.5 L 170 297.5 L 167 300.5 L 167 301.5 Q 165.8 301.8 166 303.5 L 162.5 307 L 62.5 307 Q 61.8 307.3 62 306.5 L 62 288.5 Q 64 287.5 62 286.5 Q 60.8 282.8 64.5 284 L 65.5 283 Z "></path><path fill="rgb(0,0,0)" stroke="rgb(0,0,0)" stroke-width="1.5" opacity="0" d="M 197.5 283 L 200.5 283 Q 201 284.5 203.5 284 L 204.5 283 L 208.5 283 Q 208.7 284.3 210.5 284 L 211.5 283 L 225.5 283 L 227 284.5 L 223 288.5 L 223 289.5 L 210 302.5 L 210 304 Q 207.9 303.5 207 305.5 L 207 306.5 L 193 320.5 L 193 321.5 L 191.5 323 Q 189.3 322.3 190 324.5 L 182.5 332 L 182 331.5 L 183 330.5 L 183 289.5 Q 184.2 289.2 184 287.5 L 186 285.5 L 186 284 L 186.5 284 L 196.5 284 L 197.5 283 Z "></path><path fill="rgb(0,0,0)" stroke="rgb(0,0,0)" stroke-width="1.5" opacity="0" d="M 175.5 301 L 176 301.5 L 176 336.5 L 176 337 L 175.5 337 L 62.5 337 L 62 336.5 Q 63.5 336 63 333.5 L 62 332.5 L 62 313.5 L 62.5 313 L 63.5 314 Q 65.2 314.2 65.5 313 L 67.5 313 L 68.5 314 L 165.5 314 L 166.5 313 L 168 313 L 168 311.5 L 170 309.5 L 170 308.5 L 172 306.5 L 172 305.5 L 175 302.5 Q 174.8 301.3 175.5 301 Z "></path><path fill="url(#logo-grad)" stroke="url(#logo-grad)" stroke-width="1.5" opacity="0.8274509803921568" d="M 57.5 0 L 238.5 0 L 239 0 L 239 0.5 L 239 99.5 L 240.5 101 L 267.5 101 L 270 103.5 L 270 104.5 L 271 105.5 L 271 106.5 L 272 107.5 L 272 108.5 L 273 109.5 L 273 110.5 L 274 111.5 L 274 112.5 L 275 113.5 L 275 114.5 L 276 115.5 L 276 116.5 L 277 117.5 L 277 118.5 L 278 119.5 L 278 120.5 Q 279.3 120.8 279 122.5 L 281.5 125 Q 282.3 124.8 282 123.5 L 284 121.5 L 284 120.5 L 286 118.5 L 286 117.5 L 288 115.5 L 288 114.5 Q 289.3 114.2 289 112.5 L 291 110.5 L 291 109.5 L 293 107.5 L 293 106.5 L 295 104.5 L 295 103.5 L 297 101.5 L 297 100.5 L 299 98.5 L 299 97.5 L 301 95.5 L 301 94.5 Q 302.2 94.3 302 92.5 L 304 90.5 L 304 89.5 L 307 86.5 L 307 85.5 Q 308.3 85.3 308 83.5 L 310 81.5 L 310 80.5 Q 311.2 80.3 311 78.5 L 313 76.5 L 313 75.5 L 316 72.5 L 316 71.5 Q 317.3 71.3 317 69.5 L 320 66.5 L 320 65.5 Q 321.2 65.3 321 63.5 L 323 61.5 L 323 60.5 L 325 58.5 L 325 57.5 Q 326.3 57.3 326 55.5 L 328 53.5 L 328 52.5 L 330 50.5 L 330 49.5 L 334 44.5 L 334 43.5 Q 335.3 43.2 335 41.5 L 338 38.5 L 338 37.5 Q 339.2 37.3 339 35.5 L 341 33.5 L 341 32.5 L 343 30.5 L 343 29.5 L 347 24.5 L 347 23.5 Q 348.2 23.2 348 21.5 L 351 18.5 L 351 17.5 Q 352.3 17.2 352 15.5 L 356 10.5 L 356 9.5 Q 357.2 9.2 357 7.5 L 359 5.5 L 359 4.5 L 361 2.5 L 361 1.5 L 362.5 0 L 482.5 0 Q 483.5 -0.4 483 1.5 L 482 2.5 L 482 3.5 Q 480.8 3.8 481 5.5 L 479 8.5 L 479 10.5 Q 477.7 10.7 478 12.5 L 476 14.5 L 476 16.5 L 475 17.5 L 475 18.5 L 474 19.5 L 474 20.5 Q 472.8 20.7 473 22.5 L 472 23.5 L 472 24.5 L 470 27.5 L 470 29.5 L 469 30.5 L 469 31.5 Q 467.7 31.7 468 33.5 L 467 34.5 L 467 35.5 L 465 38.5 L 465 40.5 L 463 42.5 Q 463.2 44.2 462 44.5 L 462 46.5 L 461 47.5 L 461 48.5 L 460 49.5 L 460 50.5 L 459 51.5 L 459 52.5 L 458 53.5 L 458 54.5 L 456 57.5 L 456 59.5 L 454 61.5 L 454 62.5 L 452 65.5 L 452 67.5 L 451 68.5 L 451 69.5 L 450 70.5 L 450 71.5 L 449 72.5 L 449 73.5 L 447 76.5 L 447 78.5 L 445 80.5 Q 445.2 82.2 444 82.5 L 444 84.5 L 443 85.5 L 443 86.5 L 442 87.5 L 442 88.5 L 441 89.5 L 441 90.5 L 439 93.5 L 439 95.5 Q 437.7 95.8 438 97.5 L 436 99.5 L 436 101.5 L 435 102.5 L 435 103.5 L 434 104.5 L 434 105.5 L 433 106.5 L 433 107.5 L 432 108.5 L 432 109.5 L 430 112.5 L 430 114.5 Q 428.7 114.7 429 116.5 L 427 118.5 L 427 120.5 L 426 121.5 L 426 122.5 L 425 123.5 L 425 124.5 L 423 127.5 L 423 129.5 L 422 130.5 L 422 131.5 L 421 132.5 L 421 133.5 L 420 134.5 L 420 135.5 L 419 136.5 L 419 137.5 L 418 138.5 L 418 139.5 L 417 140.5 L 417 141.5 L 416 142.5 L 416 143.5 L 415 144.5 L 415 145.5 L 413 148.5 L 413 150.5 L 412 151.5 L 412 152.5 L 411 153.5 L 411 154.5 L 410 155.5 L 410 156.5 L 408 159.5 L 408 161.5 L 406 163.5 Q 406.2 165.2 405 165.5 L 405 167.5 L 404 168.5 L 404 169.5 L 403 170.5 L 403 171.5 L 402 172.5 L 402 173.5 L 401 174.5 L 401 175.5 L 400 176.5 L 400 177.5 L 399 178.5 L 399 179.5 L 398 180.5 L 398 181.5 L 396 184.5 L 396 186.5 L 395 187.5 L 395 188.5 L 394 189.5 L 394 190.5 L 393 191.5 L 393 192.5 L 391 195.5 L 391 197.5 L 389 199.5 L 389 200.5 L 387 203.5 L 387 205.5 L 386 206.5 L 386 207.5 L 385 208.5 L 385 209.5 L 384 210.5 L 384 211.5 L 382 214.5 L 382 216.5 L 380 218.5 Q 380.2 220.2 379 220.5 L 379 222.5 L 378 223.5 L 378 224.5 L 377 225.5 L 377 226.5 L 376 227.5 L 376 228.5 L 375 229.5 L 375 230.5 L 374 231.5 L 374 232.5 L 373 233.5 L 373 234.5 L 372 235.5 L 372 236.5 L 371 237.5 L 371 238.5 L 369 241.5 L 369 243.5 L 368 244.5 L 368 245.5 L 367 246.5 L 367 247.5 L 366 248.5 L 366 249.5 L 365 250.5 L 365 251.5 L 364 252.5 L 364 253.5 L 363 254.5 L 363 255.5 L 362 256.5 L 362 257.5 Q 360.8 257.7 361 259.5 L 360 260.5 L 360 262.5 L 358 264.5 Q 358.2 266.2 357 266.5 L 357 268.5 L 356 269.5 L 356 270.5 L 355 271.5 L 355 272.5 L 354 273.5 L 354 274.5 L 353 275.5 L 353 276.5 L 352 277.5 L 352 278.5 L 351 279.5 L 351 280.5 L 350 281.5 L 350 282.5 L 348 285.5 L 348 287.5 L 347 288.5 L 347 289.5 L 346 290.5 L 346 291.5 L 345 292.5 L 345 293.5 L 344 294.5 L 344 295.5 L 342 298.5 L 342 300.5 L 340 302.5 L 340 304.5 L 339 305.5 L 339 306.5 Q 337.8 306.7 338 308.5 L 336 310.5 Q 336.2 312.2 335 312.5 L 335 314.5 L 334 315.5 L 334 316.5 L 333 317.5 L 333 318.5 L 332 319.5 L 332 320.5 L 331 321.5 L 331 322.5 L 330 323.5 L 330 324.5 L 329 325.5 L 329 326.5 L 327 329.5 L 327 331.5 L 326 332.5 L 326 333.5 L 325 334.5 L 325 335.5 L 324 336.5 L 324 337.5 L 323 338.5 L 323 339.5 L 322 340.5 L 322 341.5 L 321 342.5 L 321 343.5 L 320 344.5 L 320 345.5 L 319 346.5 L 319 347.5 L 317 350.5 L 317 352 L 315 352 L 315 350.5 L 312 347.5 L 312 345.5 L 310 343.5 L 310 342.5 L 309 341.5 L 309 340.5 L 308 339.5 L 308 338.5 L 307 337.5 L 307 336.5 Q 305.8 336.3 306 334.5 L 304 332.5 L 304 331.5 L 303 330.5 L 303 329.5 Q 301.7 329.3 302 327.5 L 300 325.5 L 300 324.5 L 299 323.5 L 299 322.5 Q 297.8 322.3 298 320.5 L 296 318.5 L 296 317.5 L 294 315.5 L 294 314.5 L 293 313.5 L 293 312.5 Q 291.7 312.2 292 310.5 L 290 308.5 L 290 307.5 L 289 306.5 L 289 305.5 L 288 304.5 L 288 303.5 L 287 302.5 L 287 301.5 L 286 300.5 L 286 299.5 Q 284.7 299.3 285 297.5 L 283 295.5 L 283 294.5 L 281 292.5 L 281 291.5 Q 279.7 291.3 280 289.5 L 278 287.5 L 278 286.5 L 277 285.5 L 277 284.5 L 276 283.5 L 276 282.5 L 275 281.5 L 275 280.5 Q 273.7 280.2 274 278.5 L 272 276.5 Q 272.2 274.7 271 274.5 L 271 272.5 L 268 269.5 L 268 268.5 L 267 267.5 L 267 266.5 Q 265.8 266.3 266 264.5 L 264 262.5 L 264 261.5 L 263 260.5 L 263 259.5 Q 261.7 259.3 262 257.5 L 260 255.5 L 260 254.5 L 259 253.5 L 259 252.5 L 258 251.5 L 258 250.5 Q 256.8 250.3 257 248.5 L 255 246.5 L 255 245.5 L 254 244.5 L 254 243.5 Q 252.7 243.3 253 241.5 L 251 239.5 L 251 238.5 L 250 237.5 L 250 236.5 L 249 235.5 L 249 234.5 Q 247.8 234.3 248 232.5 L 246 230.5 L 246 229.5 L 245 228.5 L 245 227.5 Q 243.7 227.2 244 225.5 L 242 223.5 L 242 222.5 L 241 221.5 L 241 220.5 L 240 219.5 Q 240.3 218.3 239.5 218 L 239 218.5 L 239 281.5 L 235 285.5 L 235 286.5 L 222 299.5 L 222 300.5 L 207 315.5 L 207 317 Q 204.9 316.5 204 318.5 L 204 319.5 L 191 332.5 L 191 333.5 L 181.5 343 L 57.5 343 L 48 333.5 L 48 332.5 L 35 319.5 L 35 318.5 L 19 302.5 L 19 301.5 L 6 288.5 L 6 287.5 L 0 281.5 L 0 279.5 L 15 264.5 L 15 263 L 16.5 263 L 18 261.5 L 18 260.5 L 20.5 258 Q 22.8 258.8 22 256.5 L 59 219.5 L 59 218 L 60.5 218 L 61.5 217 L 63 217 L 63 217.5 L 63 242.5 L 62 243.5 L 62 270.5 L 63 271.5 L 62 272.5 Q 64 273.5 62 274.5 Q 61.8 277.3 62.5 277 L 175.5 277 L 176 277 L 176 276.5 L 176 251.5 L 173.5 249 L 172.5 249 L 170.5 247 L 169.5 247 Q 169.3 245.8 167.5 246 L 165.5 244 L 164.5 244 Q 164.3 242.7 162.5 243 L 160.5 241 L 159.5 241 L 157.5 239 L 156.5 239 L 151.5 235 L 150.5 235 Q 150.2 233.7 148.5 234 L 146.5 232 L 145.5 232 L 143.5 230 L 142.5 230 Q 142.3 228.8 140.5 229 L 135.5 225 L 134.5 225 Q 134.3 223.8 132.5 224 L 127.5 220 L 126.5 220 Q 126.3 218.8 124.5 219 L 122.5 217 L 121.5 217 Q 121.2 215.7 119.5 216 L 114.5 212 L 113.5 212 Q 113.3 210.8 111.5 211 L 109.5 209 L 108.5 209 L 106.5 207 L 105.5 207 L 100.5 203 L 99.5 203 Q 99.3 201.8 97.5 202 L 92.5 198 L 91.5 198 Q 91.3 196.7 89.5 197 L 87.5 195 L 86.5 195 Q 86.3 193.8 84.5 194 L 82.5 192 L 81.5 192 L 76.5 188 L 75.5 188 L 74.5 187 L 73.5 187 Q 73.3 185.8 71.5 186 L 68.5 183 L 67.5 183 L 66.5 182 L 65.5 182 Q 65.3 180.7 63.5 181 L 60.5 178 L 59.5 178 Q 59.3 176.8 57.5 177 L 52.5 173 L 51.5 173 Q 51.3 171.7 49.5 172 L 47.5 170 L 46.5 170 L 43.5 167 L 42.5 167 L 41.5 166 L 40.5 166 Q 40.3 164.8 38.5 165 L 36.5 163 L 35.5 163 Q 35.3 161.7 33.5 162 L 31.5 160 L 30.5 160 L 25.5 156 Q 23.7 156.2 23.5 155 L 22 155 L 22 153 Q 21.5 153 19.5 153 L 17.5 151 L 16.5 151 Q 16.3 149.8 14.5 150 L 12.5 148 L 11.5 148 Q 11.3 146.8 9.5 147 L 7.5 145 L 6.5 145 Q 6.2 143.7 4.5 144 L 0 139.5 L 0 61.5 Q 1.3 61.2 1 59.5 L 2.5 58 Q 4.8 58.8 4 56.5 L 18 42.5 L 18 41.5 L 31 28.5 L 31 27.5 L 48 10.5 L 48 9.5 L 57.5 0 Z M 63 6 Q 62 7 63 7 Q 64 7 63 6 Z M 65 6 L 63 8 L 63 16 L 62 17 Q 62 19 63 20 L 63 27 L 62 28 Q 61 29 63 29 L 207 29 L 207 29 L 207 28 L 225 10 L 225 8 L 227 8 L 227 8 L 226 6 L 65 6 Z M 368 6 L 364 10 L 364 11 L 362 13 Q 362 14 361 15 L 361 16 L 357 21 L 357 22 L 355 24 L 355 25 L 353 27 Q 353 28 352 29 L 352 30 L 348 35 L 348 36 L 346 38 L 346 39 L 344 41 Q 344 42 343 43 L 343 44 L 340 47 Q 340 48 339 49 L 339 50 L 335 55 L 335 56 L 333 58 L 333 59 L 331 61 L 331 62 L 329 64 L 329 65 L 327 67 Q 327 68 326 69 L 326 70 L 322 75 L 322 76 L 320 78 L 320 79 L 318 81 Q 318 82 317 83 L 317 84 L 314 87 Q 314 88 313 89 L 313 90 L 312 91 L 312 92 L 309 95 Q 309 96 308 97 L 308 98 L 305 101 Q 305 102 304 103 L 304 104 L 300 109 L 300 110 L 298 112 L 298 113 L 296 115 Q 296 116 295 117 L 295 118 L 291 123 Q 291 124 290 125 L 290 126 L 287 129 Q 287 130 286 131 L 286 132 L 285 133 L 286 134 L 286 136 L 288 139 L 288 140 L 289 141 L 289 142 L 290 143 L 290 144 L 291 145 L 291 146 L 292 147 L 292 148 L 293 149 L 293 150 L 295 152 L 295 154 Q 296 154 296 156 L 298 158 Q 298 159 299 160 L 299 161 L 300 162 L 300 163 L 301 164 L 301 165 L 302 166 L 302 167 L 303 168 L 303 169 L 304 170 L 304 171 L 305 172 L 305 173 L 306 174 L 306 175 L 308 177 Q 308 178 309 179 L 309 181 Q 310 183 312 182 L 312 181 L 314 178 L 314 177 L 315 176 L 315 175 L 316 174 L 316 173 L 317 172 L 317 171 L 318 170 L 318 169 L 319 168 L 319 167 L 320 166 L 320 165 L 321 164 L 321 162 L 323 160 Q 323 158 324 158 L 324 157 L 325 156 L 325 155 L 326 154 L 326 152 L 328 150 Q 328 148 329 148 L 329 146 Q 330 145 330 144 L 332 142 Q 332 140 333 140 L 333 138 L 335 135 L 335 134 L 337 132 Q 337 130 338 130 L 338 128 Q 339 127 339 126 L 341 124 L 341 122 L 343 119 L 343 118 L 344 117 L 344 116 L 346 114 L 346 112 L 348 109 L 348 108 L 350 106 L 350 104 L 352 101 L 352 100 L 354 98 L 354 96 L 356 93 L 356 92 L 357 91 L 357 90 L 358 89 L 358 88 L 359 87 L 359 86 L 360 85 L 360 84 L 361 83 L 361 81 L 363 79 Q 363 77 364 77 L 364 76 L 365 75 L 365 73 L 367 71 Q 367 69 368 69 L 368 68 L 369 67 L 369 65 L 373 59 L 373 57 Q 374 56 374 55 L 376 53 L 376 51 L 378 48 L 378 47 L 379 46 L 379 45 L 381 43 Q 382 43 383 42 L 387 42 L 388 43 L 411 43 L 412 42 L 416 42 L 417 43 L 418 43 L 418 45 L 416 48 L 416 49 L 415 50 L 415 51 L 414 52 L 414 54 L 412 57 L 412 58 L 411 59 L 411 60 L 410 61 L 410 63 L 409 64 Q 409 65 408 66 L 408 67 L 407 68 L 407 69 L 406 70 L 406 71 L 405 72 L 405 74 L 403 77 L 403 78 L 402 79 L 402 80 L 401 81 L 401 82 L 400 83 L 400 85 L 398 88 L 398 89 L 397 90 L 397 91 L 396 92 L 396 94 L 394 97 L 394 98 L 393 99 L 393 100 L 392 101 L 392 103 L 390 106 L 390 107 L 389 108 L 389 109 L 388 110 L 388 111 L 387 112 L 387 114 Q 386 114 386 116 L 384 118 L 384 120 L 383 121 Q 383 122 382 123 L 382 124 L 381 125 L 381 126 L 380 127 L 380 128 L 379 129 L 379 130 L 378 131 L 378 133 L 376 136 L 376 137 L 375 138 L 375 140 L 373 143 L 373 144 L 372 145 L 372 146 L 371 147 L 371 148 L 370 149 L 370 150 L 369 151 L 369 153 L 367 156 L 367 157 L 366 158 L 366 159 L 365 160 L 365 162 Q 364 162 364 164 L 362 166 L 362 168 L 360 171 L 360 172 L 359 173 L 359 174 L 358 175 L 358 176 L 357 177 L 357 179 L 355 182 L 355 183 L 354 184 L 354 185 L 353 186 L 353 188 L 351 191 L 351 193 L 349 195 L 349 197 L 347 200 L 347 201 L 346 202 L 346 203 L 345 204 L 345 205 L 344 206 L 344 207 L 343 208 L 343 210 L 341 213 L 341 214 L 340 215 L 340 216 L 339 217 L 339 219 L 337 222 L 337 223 L 336 224 L 336 225 L 335 226 L 335 227 L 334 228 L 334 230 Q 333 230 333 232 L 331 234 L 331 236 L 329 239 L 329 240 L 328 241 L 328 242 L 327 243 L 327 244 L 326 245 L 326 247 L 324 250 L 324 251 L 323 252 L 323 253 L 322 254 L 322 256 L 320 259 L 320 260 L 319 261 L 319 262 L 318 263 L 318 264 L 317 265 L 317 267 L 315 270 L 315 271 L 314 272 L 314 273 L 312 275 L 309 273 Q 309 271 308 271 L 308 270 L 307 269 L 307 268 L 306 267 L 306 266 L 304 264 Q 304 262 303 262 L 303 261 L 302 260 L 302 258 L 298 253 L 298 251 L 296 249 Q 296 247 295 247 L 295 246 L 294 245 L 294 244 L 293 243 L 293 242 L 291 240 Q 291 238 290 238 L 290 237 L 289 236 L 289 235 L 287 233 Q 287 231 286 231 L 286 230 L 285 229 L 285 228 L 284 227 L 284 226 L 282 224 Q 282 222 281 222 L 281 221 L 280 220 L 280 219 L 278 217 Q 278 215 277 215 L 277 214 L 276 213 L 276 212 L 275 211 L 275 210 L 273 208 Q 273 206 272 206 L 272 205 L 271 204 L 271 203 L 270 202 L 270 201 L 268 199 Q 268 197 267 197 L 267 195 L 264 192 Q 264 190 263 190 L 263 188 L 261 186 Q 261 184 260 184 L 260 183 L 259 182 L 259 181 L 258 180 L 258 178 L 255 178 L 255 180 L 251 185 L 251 186 L 249 188 Q 249 189 248 190 L 248 191 L 244 196 Q 244 197 243 198 L 243 199 L 241 201 Q 241 202 240 203 L 240 206 L 242 209 L 242 210 L 244 212 Q 244 213 245 214 L 245 215 L 246 216 L 246 217 L 248 219 Q 248 220 249 221 L 249 222 L 250 223 L 250 224 L 251 225 L 251 226 L 252 227 L 252 228 L 255 231 Q 255 232 256 233 L 256 235 L 259 238 Q 259 239 260 240 L 260 242 Q 261 242 261 244 L 263 246 Q 263 247 264 248 L 264 249 L 265 250 L 265 251 L 267 253 L 267 254 L 269 256 Q 269 257 270 258 L 270 259 L 272 261 Q 272 262 273 263 L 273 265 L 274 266 L 274 267 L 276 269 Q 276 270 277 271 L 277 272 L 278 273 L 278 274 L 280 276 Q 280 277 281 278 L 281 279 L 282 280 L 282 281 L 285 284 Q 285 285 286 286 L 286 287 L 287 288 L 287 289 L 288 290 L 288 291 L 289 292 L 289 293 L 290 294 L 290 295 L 291 296 L 291 297 L 292 298 L 292 299 L 294 301 Q 294 302 295 303 L 295 304 L 296 305 L 296 306 L 298 308 Q 298 309 299 310 L 299 311 L 303 316 Q 303 317 304 318 L 304 319 L 305 320 L 305 321 L 306 322 L 306 323 L 307 324 L 307 325 L 309 327 Q 309 328 310 329 L 310 330 L 312 332 Q 312 333 313 334 L 313 335 L 314 336 L 314 337 L 316 338 L 317 337 Q 317 335 318 335 L 318 334 L 319 333 L 319 332 L 320 331 L 320 329 L 322 326 L 322 325 L 324 323 L 324 321 L 326 318 L 326 317 L 327 316 L 327 315 L 328 314 L 328 313 L 329 312 L 329 310 Q 330 309 330 308 L 332 306 L 332 304 L 334 301 L 334 300 L 335 299 L 335 298 L 336 297 L 336 296 L 337 295 L 337 294 L 338 293 L 338 291 Q 339 290 339 289 L 341 287 L 341 285 L 343 282 L 343 281 L 344 280 L 344 279 L 345 278 L 345 277 L 346 276 L 346 275 L 347 274 L 347 273 L 348 272 L 348 270 L 350 268 Q 350 266 351 266 L 351 264 L 353 261 L 353 260 L 354 259 L 354 258 L 355 257 L 355 256 L 356 255 L 356 253 Q 357 252 357 251 L 359 249 L 359 247 L 361 244 L 361 243 L 362 242 L 362 241 L 363 240 L 363 239 L 364 238 L 364 237 L 365 236 L 365 235 L 366 234 L 366 233 L 367 232 L 367 231 L 368 230 L 368 229 L 369 228 L 369 226 Q 370 225 370 224 L 372 222 L 372 220 L 374 217 L 374 215 L 376 213 Q 376 211 377 211 L 377 209 L 379 206 L 379 205 L 381 203 L 381 201 L 383 198 L 383 197 L 384 196 L 384 195 L 385 194 L 385 193 L 386 192 L 386 190 Q 387 189 387 188 L 389 186 L 389 184 L 391 181 L 391 180 L 392 179 L 392 178 L 393 177 L 393 176 L 394 175 L 394 174 L 395 173 L 395 171 Q 396 170 396 169 L 398 167 L 398 165 L 400 162 L 400 161 L 401 160 L 401 159 L 402 158 L 402 157 L 403 156 L 403 155 L 404 154 L 404 152 L 406 149 L 406 148 L 407 147 L 407 146 L 408 145 L 408 144 L 409 143 L 409 142 L 410 141 L 410 140 L 411 139 L 411 138 L 412 137 L 412 135 L 414 132 L 414 131 L 415 130 L 415 129 L 417 126 L 417 125 L 418 124 L 418 123 L 419 122 L 419 121 L 420 120 L 420 118 L 422 115 L 422 114 L 423 113 L 423 112 L 424 111 L 424 110 L 425 109 L 425 108 L 426 107 L 426 105 L 428 103 Q 428 101 429 101 L 429 99 L 431 96 L 431 95 L 432 94 L 432 93 L 433 92 L 433 91 L 434 90 L 434 88 L 436 85 L 436 84 L 438 82 L 438 80 L 440 77 L 440 76 L 441 75 L 441 74 L 442 73 L 442 72 L 443 71 L 443 70 L 444 69 L 444 67 L 446 65 Q 446 63 447 63 L 447 61 L 449 58 L 449 57 L 450 56 L 450 55 L 451 54 L 451 53 L 452 52 L 452 50 Q 453 49 453 48 L 455 46 L 455 44 L 457 41 L 457 39 L 459 37 Q 459 35 460 35 L 460 33 L 462 30 L 462 29 L 463 28 Q 463 26 464 26 L 464 25 L 465 24 L 465 23 L 466 22 L 466 20 L 468 18 Q 468 16 469 16 L 469 14 L 471 11 L 471 10 L 472 9 L 472 7 L 471 7 L 470 6 L 368 6 Z M 232 12 L 224 20 L 224 21 L 222 21 L 222 23 L 210 35 L 210 46 L 211 47 L 211 54 L 210 55 L 210 81 Q 210 81 210 81 L 205 81 L 203 80 L 203 44 L 203 43 L 202 44 L 200 44 L 200 46 L 186 60 L 186 61 L 182 65 L 182 100 L 184 101 L 232 101 L 232 101 L 232 101 L 232 13 L 232 12 Z M 55 13 L 45 23 L 45 24 L 33 36 L 33 37 L 19 51 L 19 52 L 18 53 L 17 53 L 15 55 L 15 56 L 12 59 L 13 59 L 56 59 L 56 59 L 56 59 L 56 15 L 55 13 Z M 62 36 L 62 37 L 62 54 Q 64 55 62 56 L 63 57 Q 63 58 63 59 L 64 59 L 178 59 L 185 52 Q 184 49 187 50 L 188 49 L 188 48 L 198 38 Q 198 36 198 36 L 63 36 L 62 36 Z M 404 48 L 403 49 L 386 49 L 384 51 Q 384 52 383 53 L 383 54 L 382 55 L 382 56 L 381 57 L 381 58 L 379 60 L 379 62 L 378 63 L 378 64 L 376 67 L 376 68 L 375 69 L 375 70 L 374 71 L 374 72 L 373 73 L 373 74 L 372 75 L 372 76 L 371 77 L 371 78 L 370 79 L 370 80 L 369 81 L 369 83 Q 368 83 368 85 L 366 87 L 366 89 Q 365 89 365 91 L 363 93 Q 363 94 362 95 L 362 96 L 361 97 L 361 98 L 360 99 L 360 101 L 358 103 Q 358 104 357 105 L 357 107 L 355 110 L 355 111 L 353 113 L 353 115 L 352 116 L 352 117 L 351 118 L 351 119 L 350 120 Q 350 121 349 122 L 349 123 L 348 124 L 348 125 L 347 126 L 347 127 L 346 128 L 346 129 L 345 130 L 345 131 L 344 132 L 344 133 L 343 134 L 343 135 L 342 136 L 342 137 L 341 138 L 341 139 L 340 140 L 340 141 L 339 142 L 339 143 L 338 144 L 338 145 L 337 146 L 337 147 L 336 148 L 336 149 L 335 150 L 335 151 L 334 152 L 334 153 L 333 154 L 333 155 L 332 156 L 332 157 L 331 158 L 331 159 L 330 160 L 330 161 L 329 162 L 329 163 L 328 164 L 328 165 L 327 166 L 327 167 L 326 168 L 326 169 L 325 170 L 325 172 L 323 174 Q 323 175 322 176 L 322 177 L 321 178 L 321 179 L 320 180 L 320 181 L 319 182 L 319 183 L 318 184 L 318 185 L 317 186 L 317 187 L 316 188 L 316 190 L 315 191 Q 316 191 316 193 L 318 195 L 318 196 L 320 198 L 320 199 L 322 201 L 322 202 L 324 204 L 324 205 L 326 207 Q 326 208 327 209 L 327 210 L 329 212 L 329 213 L 331 215 Q 331 216 332 216 L 333 215 Q 333 213 334 213 L 334 211 Q 335 210 335 209 L 337 207 L 337 205 L 339 202 L 339 200 L 341 198 L 341 196 L 343 193 L 343 192 L 344 191 L 344 190 L 345 189 L 345 188 L 346 187 L 346 185 L 348 182 L 348 181 L 349 180 L 349 179 L 350 178 L 350 177 L 351 176 L 351 174 L 353 171 L 353 170 L 354 169 L 354 168 L 355 167 L 355 166 L 356 165 L 356 163 L 358 160 L 358 159 L 359 158 L 359 157 L 360 156 L 360 154 Q 361 153 361 152 L 363 150 L 363 148 L 365 145 L 365 143 L 367 141 L 367 139 L 369 136 L 369 135 L 370 134 L 370 132 L 372 130 L 372 128 L 374 125 L 374 124 L 375 123 L 375 122 L 376 121 L 376 120 L 377 119 L 377 117 L 378 116 Q 378 114 379 114 L 379 113 L 380 112 L 380 111 L 381 110 L 381 109 L 382 108 L 382 106 L 384 103 L 384 102 L 385 101 L 385 100 L 386 99 L 386 97 Q 387 96 387 95 L 389 93 L 389 91 L 391 88 L 391 86 Q 392 85 392 84 L 394 82 L 394 80 L 396 77 L 396 75 L 398 73 L 398 71 L 400 68 L 400 66 L 402 64 Q 402 62 403 62 L 403 60 L 405 57 L 405 55 L 407 53 Q 406 49 408 49 L 408 48 L 404 48 Z M 14 66 L 13 67 L 17 70 L 18 70 L 23 75 L 24 75 L 27 78 L 28 78 L 28 80 L 30 80 L 34 84 L 35 84 L 39 88 L 40 88 L 43 91 L 45 91 L 50 86 L 50 84 L 52 84 L 52 83 L 56 79 L 56 68 L 57 67 L 57 66 L 14 66 Z M 63 66 Q 63 67 63 70 L 62 71 L 65 73 L 66 73 L 69 76 L 70 76 L 74 80 L 75 80 L 77 82 L 78 82 L 81 85 L 82 85 L 86 89 L 87 89 L 89 91 L 90 91 L 92 93 L 93 93 L 96 96 L 97 96 L 100 99 L 101 99 L 105 103 L 106 103 L 108 105 L 109 105 L 112 108 L 113 108 L 115 110 L 116 110 L 116 112 L 118 112 L 120 114 L 121 114 L 124 117 L 125 117 L 127 119 L 128 119 L 131 122 L 132 122 L 135 125 L 136 125 L 139 128 L 140 128 L 143 131 L 144 131 L 146 133 L 147 133 L 151 137 L 152 137 L 155 140 L 156 140 L 158 142 L 159 142 L 162 145 L 163 145 L 167 149 L 168 149 L 170 151 L 171 151 L 174 154 L 175 154 L 177 156 L 178 156 L 181 159 L 182 159 L 182 161 L 184 161 L 189 165 L 190 165 L 193 168 L 194 168 L 197 171 L 198 171 L 201 174 L 202 174 L 205 177 L 206 177 L 209 180 L 210 180 L 212 182 L 213 182 L 213 184 L 215 184 Q 215 185 217 185 L 220 188 L 221 188 L 223 190 L 223 190 L 223 189 L 221 187 Q 221 185 220 185 L 220 184 L 219 183 L 219 182 L 218 181 L 218 180 L 216 178 Q 216 176 215 176 L 215 175 L 214 174 L 214 173 L 212 171 Q 212 169 211 169 L 211 168 L 210 167 L 210 166 L 208 164 Q 208 162 207 162 L 207 161 L 206 160 L 206 159 L 205 158 L 205 157 L 203 155 Q 203 153 202 153 L 202 152 L 201 151 L 201 150 L 199 148 Q 199 146 198 146 L 198 145 L 197 144 L 197 143 L 195 141 Q 195 139 194 139 L 194 138 L 193 137 L 193 136 L 192 135 L 192 134 L 190 132 L 190 131 L 189 130 L 189 129 L 187 126 L 187 125 L 185 123 Q 185 121 184 121 L 184 120 L 183 119 L 183 118 L 181 116 Q 181 114 180 114 L 180 113 L 179 112 L 179 111 L 177 109 Q 177 107 176 107 L 176 68 L 175 66 L 64 66 L 63 66 Z M 8 71 L 7 72 L 7 130 L 8 130 L 19 119 L 19 117 L 21 117 L 21 116 L 36 101 L 36 100 L 39 97 L 38 95 L 37 95 L 33 91 L 32 91 L 27 86 L 26 86 L 22 82 L 21 82 L 16 77 L 15 77 L 10 72 Q 8 72 8 71 Z M 63 79 Q 62 80 63 80 Q 64 80 63 79 Z M 62 81 L 62 83 L 53 92 L 52 92 L 50 94 Q 50 95 49 96 L 50 97 L 50 98 L 52 98 L 57 103 L 58 103 L 63 108 L 64 108 L 64 110 L 66 110 L 69 113 L 70 113 L 74 117 L 75 117 L 80 122 L 81 122 L 81 124 L 83 124 L 87 128 L 88 128 L 92 132 L 93 132 L 96 135 L 97 135 L 102 140 L 103 140 L 103 142 L 105 142 L 109 146 L 110 146 L 113 149 L 114 149 L 119 154 L 120 154 L 126 160 L 127 160 L 131 164 L 132 164 L 136 168 L 137 168 L 141 172 L 142 172 L 148 178 L 149 178 L 153 182 L 154 182 L 158 186 L 159 186 L 164 191 L 165 191 L 170 196 L 171 196 L 175 200 L 176 200 L 181 205 L 182 205 L 187 210 L 188 210 L 192 214 L 193 214 L 197 218 L 198 218 L 203 223 L 204 223 L 209 228 L 210 228 L 212 231 Q 212 232 213 232 L 214 231 Q 214 229 215 229 L 215 228 L 218 225 L 218 224 L 220 222 L 220 221 L 222 219 L 222 218 L 224 216 Q 224 214 225 214 L 225 213 L 229 208 Q 229 206 230 206 L 230 205 L 227 201 L 226 201 L 222 197 L 221 197 L 219 195 L 218 195 L 214 191 L 213 191 L 210 188 L 209 188 L 207 186 L 206 186 L 203 183 L 202 183 L 200 181 L 199 181 L 196 178 L 195 178 L 191 174 L 190 174 L 187 171 L 186 171 L 184 169 L 183 169 L 179 165 L 178 165 L 175 162 L 174 162 L 172 160 L 171 160 L 169 158 L 168 158 L 165 155 L 164 155 L 160 151 L 159 151 L 157 149 L 156 149 L 153 146 L 152 146 L 148 142 L 147 142 L 144 139 L 143 139 L 141 137 L 140 137 L 137 134 L 136 134 L 133 131 L 132 131 L 130 129 L 129 129 L 125 125 L 124 125 L 122 123 L 121 123 L 118 120 L 117 120 L 114 117 L 113 117 L 110 114 L 109 114 L 106 111 L 105 111 L 103 109 L 102 109 L 98 105 L 97 105 L 94 102 L 93 102 L 91 100 L 90 100 L 87 97 L 86 97 L 82 93 L 81 93 L 79 91 L 78 91 L 74 87 Q 72 87 72 86 L 71 86 L 68 83 L 67 83 L 65 81 Q 62 81 62 81 Z M 49 96 Q 48 97 49 97 Q 50 97 49 96 Z M 44 102 L 32 114 L 32 115 L 18 129 L 18 130 L 16 130 L 16 132 L 14 134 L 13 134 L 11 136 Q 11 137 10 138 L 10 139 L 12 140 L 13 140 L 15 142 L 16 142 L 18 144 L 19 144 L 21 146 Q 22 146 23 147 L 24 147 L 26 149 Q 27 149 28 150 L 29 150 L 34 154 L 35 154 L 37 156 Q 38 156 39 157 L 40 157 L 45 161 L 46 161 L 48 163 Q 49 163 50 164 L 51 164 L 56 168 Q 57 168 58 169 L 59 169 L 60 170 L 61 170 L 66 174 L 67 174 L 69 176 Q 70 176 71 177 L 72 177 L 77 181 Q 78 181 79 182 L 80 182 L 85 186 L 86 186 L 88 188 Q 89 188 90 189 L 91 189 L 96 193 L 97 193 L 99 195 Q 100 195 101 196 L 102 196 L 104 198 Q 105 198 106 199 L 107 199 L 109 201 Q 110 201 111 202 L 112 202 L 117 206 Q 118 206 119 207 L 120 207 L 125 211 Q 126 211 127 212 L 128 212 L 133 216 L 134 216 L 136 218 L 137 218 L 139 220 Q 140 220 141 221 L 142 221 L 147 225 Q 148 225 149 226 L 150 226 L 155 230 Q 156 230 157 231 L 158 231 L 163 235 L 164 235 L 166 237 Q 167 237 168 238 L 169 238 L 174 242 L 175 242 L 177 244 Q 178 244 179 245 L 180 245 L 182 248 Q 182 250 183 251 L 183 276 L 184 276 L 185 275 L 185 274 L 188 271 Q 188 269 189 269 L 189 268 L 192 265 Q 192 263 193 263 L 193 262 L 197 257 Q 197 255 198 255 L 198 254 L 201 251 Q 201 249 202 249 L 202 248 L 206 243 Q 206 241 207 241 L 207 240 L 209 238 L 209 237 L 207 234 L 206 234 L 201 229 L 200 229 L 196 225 L 195 225 L 190 220 L 189 220 L 186 217 L 185 217 L 179 211 L 178 211 L 174 207 L 173 207 L 168 202 L 167 202 L 162 197 L 161 197 L 157 193 L 156 193 L 152 189 L 151 189 L 147 185 L 145 185 L 145 183 L 144 183 L 140 179 L 139 179 L 134 174 L 133 174 L 128 169 L 127 169 L 123 165 L 122 165 L 118 161 L 117 161 L 112 156 L 111 156 L 106 151 L 105 151 L 100 146 L 99 146 L 95 142 L 94 142 L 89 137 L 88 137 L 83 132 L 82 132 L 78 128 L 77 128 L 74 125 L 73 125 L 69 121 L 68 121 L 61 114 L 60 114 L 56 110 L 55 110 L 51 106 L 50 106 L 46 102 L 44 102 Z M 185 107 Q 184 108 185 108 Q 186 108 185 107 Z M 186 107 Q 186 108 186 110 Q 187 110 187 112 L 189 114 L 189 116 L 191 118 Q 191 119 192 120 L 192 121 L 193 122 L 193 123 L 195 125 Q 195 126 196 127 L 196 128 L 198 130 Q 198 131 199 132 L 199 133 L 200 134 L 200 135 L 202 137 Q 202 138 203 139 L 203 140 L 204 141 L 204 142 L 205 143 L 205 144 L 206 145 L 206 146 L 207 147 L 207 148 L 208 149 L 208 150 L 212 155 L 212 157 Q 213 157 213 159 L 216 162 Q 216 163 217 164 L 217 166 L 219 168 Q 219 169 220 170 L 220 171 L 221 172 L 221 173 L 223 175 Q 223 176 224 177 L 224 178 L 225 179 L 225 180 L 226 181 L 226 182 L 228 184 Q 228 185 229 186 L 229 187 L 230 188 L 230 189 L 231 190 L 231 191 L 233 193 Q 233 194 234 195 L 234 196 L 236 197 Q 236 197 236 196 L 237 195 L 237 194 L 240 191 Q 240 189 241 189 L 241 188 L 245 183 Q 245 181 246 181 L 246 180 L 249 177 Q 249 175 250 175 L 250 174 L 251 173 L 251 172 L 252 171 L 252 169 L 250 166 L 250 165 L 249 164 L 249 163 L 247 161 Q 247 159 246 159 L 246 158 L 245 157 L 245 156 L 243 154 Q 243 152 242 152 L 242 151 L 241 150 L 241 149 L 240 148 L 240 147 L 239 146 L 239 145 L 238 144 L 238 143 L 234 138 Q 234 136 233 136 L 233 135 L 232 134 L 232 133 L 231 132 L 231 131 L 230 130 L 230 129 L 228 126 L 228 125 L 227 124 L 227 123 L 225 121 Q 225 119 224 119 L 224 118 L 223 117 L 223 116 L 221 114 Q 221 112 220 112 L 220 111 L 219 110 L 219 109 L 218 107 L 187 107 L 186 107 Z M 226 107 L 226 109 L 228 111 Q 228 112 229 113 L 229 114 L 230 115 L 230 116 L 231 117 L 231 118 L 233 120 Q 233 121 234 122 L 234 123 L 235 124 L 235 125 L 237 127 L 237 128 L 239 131 L 239 132 L 240 133 L 240 134 L 242 136 Q 242 137 243 138 L 243 139 L 244 140 L 244 141 L 245 142 L 245 143 L 246 144 L 246 145 L 247 146 L 247 147 L 248 148 L 248 149 L 250 151 Q 250 152 251 153 L 251 154 L 253 156 L 253 157 L 255 159 Q 255 160 256 161 L 256 162 L 258 163 Q 258 163 258 162 L 259 161 L 259 160 L 260 159 L 260 158 L 264 153 L 264 152 L 266 150 L 266 149 L 268 147 Q 268 145 269 145 L 269 144 L 272 141 Q 272 139 273 139 L 273 138 L 275 136 Q 275 134 276 134 L 276 130 L 274 128 Q 274 126 273 126 L 273 125 L 272 124 L 272 123 L 271 122 L 271 120 L 269 118 Q 269 116 268 116 L 268 115 L 267 114 L 267 113 L 266 112 L 266 111 L 264 109 Q 264 107 264 107 L 227 107 L 226 107 Z M 7 130 Q 6 131 7 131 Q 8 131 7 130 Z M 281 140 L 278 143 L 278 144 L 276 146 L 276 147 L 274 149 Q 274 150 273 151 L 273 152 L 270 155 Q 270 156 269 157 L 269 158 L 265 163 Q 265 164 264 165 L 264 166 L 261 169 L 261 172 L 263 175 L 263 176 L 265 178 Q 265 179 266 180 L 266 181 L 268 183 Q 268 184 269 185 L 269 186 L 270 187 L 270 188 L 272 190 Q 272 191 273 192 L 273 193 L 274 194 L 274 196 L 276 198 Q 276 199 277 200 L 277 201 L 278 202 L 278 203 L 280 205 Q 280 206 281 207 L 281 208 L 282 209 L 282 210 L 283 211 L 283 212 L 285 214 Q 285 215 286 216 L 286 217 L 287 218 L 287 219 L 288 220 L 288 221 L 290 223 Q 290 224 291 225 L 291 226 L 292 227 L 292 228 L 294 230 Q 294 231 295 232 L 295 233 L 296 234 L 296 235 L 298 237 Q 298 238 299 239 L 299 240 L 300 241 L 300 242 L 301 243 L 301 244 L 302 245 L 302 246 L 303 247 L 303 248 L 304 249 L 304 250 L 305 251 L 305 252 L 308 255 Q 308 256 309 257 L 309 259 L 312 261 Q 313 260 312 259 Q 313 258 313 257 L 315 255 Q 315 253 316 253 L 316 251 L 318 248 L 318 247 L 319 246 L 319 245 L 320 244 L 320 242 L 322 239 L 322 238 L 323 237 L 323 236 L 324 235 L 324 234 L 325 233 L 325 231 L 327 228 L 327 227 L 328 226 L 328 222 L 325 219 L 325 218 L 323 216 L 323 215 L 321 213 Q 321 211 320 211 L 320 210 L 317 207 L 317 206 L 315 204 L 315 203 L 313 201 L 313 200 L 311 198 L 311 197 L 309 195 L 309 194 L 307 192 Q 307 190 306 190 L 306 189 L 305 188 L 305 187 L 304 186 L 304 185 L 303 184 L 303 183 L 302 182 L 302 180 L 300 178 Q 300 176 299 176 L 299 175 L 298 174 L 298 173 L 297 172 L 297 171 L 295 169 Q 295 167 294 167 L 294 165 L 293 164 L 293 163 L 291 161 Q 291 159 290 159 L 290 157 Q 289 156 289 155 L 287 153 Q 287 151 286 151 L 286 150 L 285 149 L 285 148 L 284 147 L 284 146 L 283 145 L 283 144 L 281 142 Q 281 140 281 140 Z M 257 163 Q 256 164 257 164 Q 258 164 257 163 Z M 257 176 Q 256 177 257 177 Q 258 177 257 176 Z M 311 183 Q 310 184 311 184 Q 312 184 311 183 Z M 233 214 Q 232 215 233 215 Q 234 215 233 214 Z M 232 216 L 230 218 L 230 219 L 228 221 L 228 222 L 226 224 L 226 225 L 224 227 Q 224 228 223 229 L 223 230 L 219 235 L 219 236 L 217 238 L 217 239 L 215 241 L 215 242 L 212 245 Q 212 246 211 247 L 211 248 L 208 251 Q 208 252 207 253 L 207 254 L 205 256 L 205 257 L 203 259 L 203 260 L 201 262 L 201 263 L 199 265 L 199 266 L 197 268 L 197 269 L 195 271 Q 195 272 194 273 L 194 274 L 192 276 Q 191 277 193 277 L 232 277 L 232 277 L 232 277 L 232 217 L 232 216 Z M 239 217 Q 238 218 239 218 Q 240 218 239 217 Z M 57 231 Q 56 232 57 232 Q 58 232 57 231 Z M 56 233 Q 55 234 54 234 L 49 239 L 49 240 L 48 241 L 46 241 L 46 243 L 12 277 L 13 277 L 56 277 L 56 277 L 56 277 L 56 272 L 57 271 Q 58 268 56 268 L 56 260 L 57 259 L 57 249 L 56 248 L 56 234 L 56 233 Z M 19 283 L 18 284 L 12 284 L 11 285 Q 11 285 13 285 L 16 289 L 16 290 L 29 303 Q 28 305 31 304 L 32 306 L 32 307 L 42 317 L 42 318 L 56 331 L 56 331 L 56 317 L 57 316 L 57 312 L 56 311 L 56 303 L 57 302 Q 58 299 56 299 L 56 285 L 56 284 L 55 284 L 54 283 Q 52 283 52 284 Q 49 285 49 283 L 19 283 Z M 66 283 L 65 284 Q 61 283 62 287 Q 64 288 62 289 L 62 307 Q 62 307 63 307 L 163 307 L 166 304 Q 166 302 167 302 L 167 301 L 170 298 L 170 297 L 172 295 Q 172 293 173 293 L 173 292 L 175 290 Q 175 288 176 288 Q 176 285 176 284 Q 176 284 174 284 L 173 283 L 155 283 L 154 284 L 144 284 L 143 283 Q 140 283 140 284 Q 137 285 137 283 L 132 283 L 131 284 Q 129 284 129 283 L 123 283 Q 122 285 121 283 L 117 283 L 116 284 Q 113 285 113 283 L 101 283 L 100 284 Q 97 285 97 283 L 85 283 L 84 284 Q 82 284 82 283 L 66 283 Z M 198 283 L 197 284 L 187 284 L 186 284 L 186 286 L 184 288 Q 184 289 183 290 L 183 331 L 184 331 L 190 325 Q 189 322 192 323 L 193 322 L 193 321 L 207 307 L 207 306 Q 208 304 210 304 L 210 303 L 223 290 L 223 289 L 227 285 L 226 283 L 212 283 L 211 284 Q 209 284 209 283 L 205 283 L 204 284 Q 201 285 201 283 L 198 283 Z M 177 299 Q 176 300 177 300 Q 178 300 177 299 Z M 176 301 Q 175 301 175 303 L 172 306 L 172 307 L 170 309 L 170 310 L 168 312 L 168 313 L 167 313 L 166 314 L 69 314 L 68 313 L 66 313 Q 65 314 64 314 L 63 313 L 62 314 L 62 333 L 63 334 Q 64 336 62 337 L 63 337 L 176 337 L 176 337 L 176 337 L 176 302 L 176 301 Z M 183 331 Q 182 332 183 332 Q 184 332 183 331 Z M 57 332 Q 56 333 57 333 Q 58 333 57 332 Z "></path></svg>